<svg viewBox="0 0 841.88976378 595.275590551" width="841.88976378pt" height="595.275590551pt" xmlns="http://www.w3.org/2000/svg" xmlns:xlink="http://www.w3.org/1999/xlink" xmlns:h5="http://www.w3.org/1999/xhtml"><path fill="#ffffff" fill-rule="nonzero" d="M 0 0v 595.275590551h 841.88976378v -595.275590551Z "/><g transform="translate(18 18)"><g><g transform="matrix(1 0 0 -1 0 7.6832)"><use xlink:href="#g720592C206A90E0CBE32C853C0B238BE" x="0" y="0" fill="#000000" fill-rule="nonzero"/><use xlink:href="#gFF0879FEF4D136BCCA72FD2246E2DEA1" x="6.44" y="0" fill="#000000" fill-rule="nonzero"/></g><g transform="matrix(1 0 0 -1 13.3728 7.6832)"><use xlink:href="#gCBBAA4FAF505A1E6ED64F6299A4CD466" x="0" y="0" fill="#000000" fill-rule="nonzero"/><use xlink:href="#g726A98C0702606A3F415D391682BB070" x="7.1568" y="0" fill="#000000" fill-rule="nonzero"/><use xlink:href="#gDE2C9666E6F1976793D29F9FDA8EC622" x="13.0592" y="0" fill="#000000" fill-rule="nonzero"/><use xlink:href="#gFBC22C22641B748BCA1D12C62CAAB74B" x="18.7824" y="0" fill="#000000" fill-rule="nonzero"/><use xlink:href="#gD358EB12632BFBA5386E6BADA2532825" x="23.7888" y="0" fill="#000000" fill-rule="nonzero"/><use xlink:href="#g1490C94ACCCEEB86E89F7D260D363650" x="27.3616" y="0" fill="#000000" fill-rule="nonzero"/><use xlink:href="#gF477E5FD5C4BCC63D8E377A9CCACDF3F" x="33.8016" y="0" fill="#000000" fill-rule="nonzero"/></g></g><g transform="translate(0 19.2032)"><g transform="matrix(1 0 0 -1 0 6.5856)"><use xlink:href="#g9C9084802398B33BCA1A739D48B9EB40" x="0" y="0" fill="#000000" fill-rule="nonzero"/><use xlink:href="#gCC9110954FB371736765220A111C4AC5" x="5.52" y="0" fill="#000000" fill-rule="nonzero"/><use xlink:href="#g9C9084802398B33BCA1A739D48B9EB40" x="8.5824" y="0" fill="#000000" fill-rule="nonzero"/><use xlink:href="#gCC9110954FB371736765220A111C4AC5" x="14.1024" y="0" fill="#000000" fill-rule="nonzero"/></g><g transform="matrix(1 0 0 -1 20.0448 6.5856)"><use xlink:href="#gD540B183D8F4EA185415B77CDB5F55C3" x="0" y="0" fill="#000000" fill-rule="nonzero"/><use xlink:href="#g1E54B5A05AA78D0956F5705E7F363F7A" x="6.1344" y="0" fill="#000000" fill-rule="nonzero"/><use xlink:href="#g82B3BAF4F7103B9A84D74438C4F18F5A" x="12.2688" y="0" fill="#000000" fill-rule="nonzero"/><use xlink:href="#g3378C7CB4E8C37DBF8A2102DF13CF461" x="18.4032" y="0" fill="#000000" fill-rule="nonzero"/><use xlink:href="#gEA106C8D45334AC1395BAC48D7F52ABC" x="22.08" y="0" fill="#000000" fill-rule="nonzero"/><use xlink:href="#gCA08003471391880A99EB23C16FC473" x="26.4384" y="0" fill="#000000" fill-rule="nonzero"/><use xlink:href="#gF57C82639A881B614A87F250305BB129" x="31.4976" y="0" fill="#000000" fill-rule="nonzero"/><use xlink:href="#g2B121C185EC61BE325ECD8E998D9D367" x="36.4032" y="0" fill="#000000" fill-rule="nonzero"/><use xlink:href="#g5DD496951A619DBC013646C29603B63E" x="40.6944" y="0" fill="#000000" fill-rule="nonzero"/><use xlink:href="#gAA24B0F80CAB5E612321AD88C8740CE7" x="43.7568" y="0" fill="#000000" fill-rule="nonzero"/><use xlink:href="#g4602FAC0E26D26D40666FD411C899005" x="49.2768" y="0" fill="#000000" fill-rule="nonzero"/></g></g><g transform="translate(0 31.7888)"><g><path fill="#cccccc" fill-rule="nonzero" d="M 0 0m 0 2.5c 0 -1.380711875 1.119288125 -2.5 2.5 -2.5h 247.512125984c 1.380711875 0 2.5 1.119288125 2.5 2.5v 21.952c 0 1.380711875 -1.119288125 2.5 -2.5 2.5h -247.512125984c -1.380711875 0 -2.5 -1.119288125 -2.5 -2.5Z "/><path fill="none" stroke="#000000" stroke-width="1" stroke-linecap="butt" stroke-linejoin="miter" stroke-miterlimit="4" stroke-dashoffset="0" stroke-dasharray="" d="M 0 0m 2.5 0h 247.512125984c 1.380711875 0 2.5 1.119288125 2.5 2.5v 21.952c 0 1.380711875 -1.119288125 2.5 -2.5 2.5h -247.512125984c -1.380711875 0 -2.5 -1.119288125 -2.5 -2.5v -21.952c 0 -1.380711875 1.119288125 -2.5 2.5 -2.5"/><g><g transform="translate(5 5)"><g><g transform="matrix(1 0 0 -1 0 5.488)"><use xlink:href="#g73A21BDE9E688EA2CA5C518582DE58AA" x="0" y="0" fill="#000000" fill-rule="nonzero"/><use xlink:href="#gEB064D50D1688B109B8D6326D0F91B07" x="7.056" y="0" fill="#000000" fill-rule="nonzero"/><use xlink:href="#gA58649015F9FC4DCAB3F63B8C10C8FEC" x="11.272" y="0" fill="#000000" fill-rule="nonzero"/><use xlink:href="#g13A349DBC508D83BFBFA4DD505310871" x="16.384" y="0" fill="#000000" fill-rule="nonzero"/><use xlink:href="#g123D1A63C2C8217F84195FEAD352FD93" x="21.496" y="0" fill="#000000" fill-rule="nonzero"/><use xlink:href="#g1B33DBF334E0CFAF79E2207AD577A75B" x="24.048" y="0" fill="#000000" fill-rule="nonzero"/><use xlink:href="#g123D1A63C2C8217F84195FEAD352FD93" x="27.624" y="0" fill="#000000" fill-rule="nonzero"/><use xlink:href="#gD184BC7B568F9D15A4685730033DA8FB" x="30.176" y="0" fill="#000000" fill-rule="nonzero"/><use xlink:href="#g13A349DBC508D83BFBFA4DD505310871" x="34.776" y="0" fill="#000000" fill-rule="nonzero"/></g><path fill="none" stroke="#000000" stroke-width="0.48" stroke-linecap="butt" stroke-linejoin="miter" stroke-miterlimit="4" transform="translate(0 6.416)" d="M 0 0h 39.888"/></g><g transform="matrix(1 0 0 -1 0 16.952)"><use xlink:href="#gB07DBEF34BE29BE34FA82B3FB01E2D71" x="0" y="0" fill="#000000" fill-rule="nonzero"/><use xlink:href="#gCD87B2E80BA7E27C266A364BAD460328" x="4.448" y="0" fill="#000000" fill-rule="nonzero"/><use xlink:href="#gB83E1D2D3EC08EAE582953B7BB2A24B0" x="8.448" y="0" fill="#000000" fill-rule="nonzero"/><use xlink:href="#g9841D28529CB7B127A09CBC3B96BCA1C" x="15.112" y="0" fill="#000000" fill-rule="nonzero"/><use xlink:href="#g925D7ADFA44A6B309BF6DC7C1495698F" x="18.664" y="0" fill="#000000" fill-rule="nonzero"/><use xlink:href="#g92E2FB791B3CDA75FED06AD07BAA7CB4" x="21.776" y="0" fill="#000000" fill-rule="nonzero"/><use xlink:href="#g335F63EA719C187F62D2F19BB42E6501" x="26.224" y="0" fill="#000000" fill-rule="nonzero"/><use xlink:href="#gDE0349DC484E50BAF5016F34783DF780" x="28.448" y="0" fill="#000000" fill-rule="nonzero"/><use xlink:href="#g36C14003036C8FBFFD781A221CBD184" x="32.896" y="0" fill="#000000" fill-rule="nonzero"/><use xlink:href="#g335F63EA719C187F62D2F19BB42E6501" x="39.56" y="0" fill="#000000" fill-rule="nonzero"/><use xlink:href="#g1BE32E763E596CAF009BE26C5F601CCD" x="41.784" y="0" fill="#000000" fill-rule="nonzero"/><use xlink:href="#g86F506794C1829634EFE574FDC60906D" x="47.6" y="0" fill="#000000" fill-rule="nonzero"/><use xlink:href="#g9841D28529CB7B127A09CBC3B96BCA1C" x="52.048" y="0" fill="#000000" fill-rule="nonzero"/><use xlink:href="#gE4862BFBAC37ACA35583723D3B904988" x="55.6" y="0" fill="#000000" fill-rule="nonzero"/><use xlink:href="#gDE0349DC484E50BAF5016F34783DF780" x="60.048" y="0" fill="#000000" fill-rule="nonzero"/><use xlink:href="#g9841D28529CB7B127A09CBC3B96BCA1C" x="64.496" y="0" fill="#000000" fill-rule="nonzero"/><use xlink:href="#g86F506794C1829634EFE574FDC60906D" x="68.048" y="0" fill="#000000" fill-rule="nonzero"/><use xlink:href="#g113270E0BFD486954B9C57EC2D3F3611" x="75.16" y="0" fill="#000000" fill-rule="nonzero"/><use xlink:href="#g1BE32E763E596CAF009BE26C5F601CCD" x="79.16" y="0" fill="#000000" fill-rule="nonzero"/></g><g transform="matrix(1 0 0 -1 84.976 16.952)"><use xlink:href="#g969FC14431BDC8DFB7BE75E722B1BC64" x="0" y="0" fill="#000000" fill-rule="nonzero"/></g><g transform="matrix(1 0 0 -1 91.2 16.952)"><use xlink:href="#gB4679B678B8385AB5143F590C27FC618" x="0" y="0" fill="#000000" fill-rule="nonzero"/></g></g></g></g></g><g transform="translate(0 68.3408)"><g><path fill="#e6e6e6" fill-rule="nonzero" d="M 0 0m 0 2.5c 0 -1.380711875 1.119288125 -2.5 2.5 -2.5h 247.512125984c 1.380711875 0 2.5 1.119288125 2.5 2.5v 21.952c 0 1.380711875 -1.119288125 2.5 -2.5 2.5h -247.512125984c -1.380711875 0 -2.5 -1.119288125 -2.5 -2.5Z "/><path fill="none" stroke="#000000" stroke-width="1" stroke-linecap="butt" stroke-linejoin="miter" stroke-miterlimit="4" stroke-dashoffset="0" stroke-dasharray="" d="M 0 0m 2.5 0h 247.512125984c 1.380711875 0 2.5 1.119288125 2.5 2.5v 21.952c 0 1.380711875 -1.119288125 2.5 -2.5 2.5h -247.512125984c -1.380711875 0 -2.5 -1.119288125 -2.5 -2.5v -21.952c 0 -1.380711875 1.119288125 -2.5 2.5 -2.5"/><g><g transform="translate(5 5)"><g><g transform="matrix(1 0 0 -1 0 5.488)"><use xlink:href="#gF71A6D1C25CCDB3731C07346B6FC1C4C" x="0" y="0" fill="#000000" fill-rule="nonzero"/><use xlink:href="#gC2EFE1E7098FC993B2D2F45EB84C1513" x="6.048" y="0" fill="#000000" fill-rule="nonzero"/><use xlink:href="#gF089AD205C9CB220439F45A1F633F2E0" x="10.904" y="0" fill="#000000" fill-rule="nonzero"/><use xlink:href="#g830DE24F1F7A9DC0DD91A6B44147275C" x="15.376" y="0" fill="#000000" fill-rule="nonzero"/><use xlink:href="#g5A00EEF3B0B59854D284FD982623D78" x="23.04" y="0" fill="#000000" fill-rule="nonzero"/><use xlink:href="#gDDC6337E0C614DE894964BA422FAE257" x="28.152" y="0" fill="#000000" fill-rule="nonzero"/><use xlink:href="#gEB064D50D1688B109B8D6326D0F91B07" x="30.704" y="0" fill="#000000" fill-rule="nonzero"/></g><path fill="none" stroke="#000000" stroke-width="0.48" stroke-linecap="butt" stroke-linejoin="miter" stroke-miterlimit="4" transform="translate(0 6.416)" d="M 0 0h 23.248"/><path fill="none" stroke="#000000" stroke-width="0.48" stroke-linecap="butt" stroke-linejoin="miter" stroke-miterlimit="4" transform="translate(25.44 6.416)" d="M 0 0h 9.48"/></g><g transform="matrix(1 0 0 -1 0 16.952)"><use xlink:href="#gFA2164DB99CB7AC093F276A60CF01BE5" x="0" y="0" fill="#000000" fill-rule="nonzero"/><use xlink:href="#g92E2FB791B3CDA75FED06AD07BAA7CB4" x="5.776" y="0" fill="#000000" fill-rule="nonzero"/><use xlink:href="#g335F63EA719C187F62D2F19BB42E6501" x="10.224" y="0" fill="#000000" fill-rule="nonzero"/><use xlink:href="#g1BE32E763E596CAF009BE26C5F601CCD" x="12.448" y="0" fill="#000000" fill-rule="nonzero"/><use xlink:href="#g335F63EA719C187F62D2F19BB42E6501" x="18.264" y="0" fill="#000000" fill-rule="nonzero"/><use xlink:href="#g1BE32E763E596CAF009BE26C5F601CCD" x="20.488" y="0" fill="#000000" fill-rule="nonzero"/><use xlink:href="#g113270E0BFD486954B9C57EC2D3F3611" x="26.304" y="0" fill="#000000" fill-rule="nonzero"/><use xlink:href="#gDE0349DC484E50BAF5016F34783DF780" x="30.304" y="0" fill="#000000" fill-rule="nonzero"/><use xlink:href="#g9841D28529CB7B127A09CBC3B96BCA1C" x="37.416" y="0" fill="#000000" fill-rule="nonzero"/><use xlink:href="#g365277CF845F5D9358107809349AB107" x="40.968" y="0" fill="#000000" fill-rule="nonzero"/><use xlink:href="#g113270E0BFD486954B9C57EC2D3F3611" x="45.192" y="0" fill="#000000" fill-rule="nonzero"/><use xlink:href="#gB83E1D2D3EC08EAE582953B7BB2A24B0" x="49.192" y="0" fill="#000000" fill-rule="nonzero"/><use xlink:href="#gC0E2B7B2B3C41929A3D53E74A1D68C3E" x="55.856" y="0" fill="#000000" fill-rule="nonzero"/><use xlink:href="#g889B73C3E25ADCFF2202D9317FB2562C" x="60.304" y="0" fill="#000000" fill-rule="nonzero"/><use xlink:href="#g9841D28529CB7B127A09CBC3B96BCA1C" x="62.528" y="0" fill="#000000" fill-rule="nonzero"/><use xlink:href="#gCD87B2E80BA7E27C266A364BAD460328" x="68.744" y="0" fill="#000000" fill-rule="nonzero"/><use xlink:href="#gED200404CF64F8FA10476F200496A3B8" x="72.744" y="0" fill="#000000" fill-rule="nonzero"/><use xlink:href="#g1BE32E763E596CAF009BE26C5F601CCD" x="77.856" y="0" fill="#000000" fill-rule="nonzero"/><use xlink:href="#gCD87B2E80BA7E27C266A364BAD460328" x="81.008" y="0" fill="#000000" fill-rule="nonzero"/><use xlink:href="#gB83E1D2D3EC08EAE582953B7BB2A24B0" x="85.008" y="0" fill="#000000" fill-rule="nonzero"/><use xlink:href="#g9841D28529CB7B127A09CBC3B96BCA1C" x="91.672" y="0" fill="#000000" fill-rule="nonzero"/><use xlink:href="#g925D7ADFA44A6B309BF6DC7C1495698F" x="95.224" y="0" fill="#000000" fill-rule="nonzero"/><use xlink:href="#g92E2FB791B3CDA75FED06AD07BAA7CB4" x="98.336" y="0" fill="#000000" fill-rule="nonzero"/><use xlink:href="#g335F63EA719C187F62D2F19BB42E6501" x="102.784" y="0" fill="#000000" fill-rule="nonzero"/><use xlink:href="#gDE0349DC484E50BAF5016F34783DF780" x="105.008" y="0" fill="#000000" fill-rule="nonzero"/><use xlink:href="#g36C14003036C8FBFFD781A221CBD184" x="109.456" y="0" fill="#000000" fill-rule="nonzero"/><use xlink:href="#gB4679B678B8385AB5143F590C27FC618" x="113.456" y="0" fill="#000000" fill-rule="nonzero"/></g></g></g></g></g><g transform="translate(0 104.8928)"><g><path fill="#ffffff" fill-rule="nonzero" d="M 0 0m 0 2.5c 0 -1.380711875 1.119288125 -2.5 2.5 -2.5h 247.512125984c 1.380711875 0 2.5 1.119288125 2.5 2.5v 124.36c 0 1.380711875 -1.119288125 2.5 -2.5 2.5h -247.512125984c -1.380711875 0 -2.5 -1.119288125 -2.5 -2.5Z "/><path fill="none" stroke="#000000" stroke-width="1" stroke-linecap="butt" stroke-linejoin="miter" stroke-miterlimit="4" stroke-dashoffset="0" stroke-dasharray="" d="M 0 0m 2.5 0h 247.512125984c 1.380711875 0 2.5 1.119288125 2.5 2.5v 124.36c 0 1.380711875 -1.119288125 2.5 -2.5 2.5h -247.512125984c -1.380711875 0 -2.5 -1.119288125 -2.5 -2.5v -124.36c 0 -1.380711875 1.119288125 -2.5 2.5 -2.5"/><g><g transform="translate(5 5)"><g><g transform="matrix(1 0 0 -1 0 5.488)"><use xlink:href="#gB5C20DD950597A4DCAC50B1AD402B9E9" x="0" y="0" fill="#000000" fill-rule="nonzero"/><use xlink:href="#gEB064D50D1688B109B8D6326D0F91B07" x="6.904" y="0" fill="#000000" fill-rule="nonzero"/><use xlink:href="#g49D354854C35FF7884DA6D2F70F0ABC7" x="11.12" y="0" fill="#000000" fill-rule="nonzero"/><use xlink:href="#g123D1A63C2C8217F84195FEAD352FD93" x="15.208" y="0" fill="#000000" fill-rule="nonzero"/><use xlink:href="#g5A00EEF3B0B59854D284FD982623D78" x="17.76" y="0" fill="#000000" fill-rule="nonzero"/><use xlink:href="#gEB064D50D1688B109B8D6326D0F91B07" x="23.128" y="0" fill="#000000" fill-rule="nonzero"/></g><path fill="none" stroke="#000000" stroke-width="0.48" stroke-linecap="butt" stroke-linejoin="miter" stroke-miterlimit="4" transform="translate(0 6.416)" d="M 0 0h 17.968"/><path fill="none" stroke="#000000" stroke-width="0.48" stroke-linecap="butt" stroke-linejoin="miter" stroke-miterlimit="4" transform="translate(20.16 6.416)" d="M 0 0h 7.184"/></g><g transform="matrix(1 0 0 -1 0 16.952)"><use xlink:href="#gA73F6A17D44059C26FC028BBACE944FD" x="0" y="0" fill="#000000" fill-rule="nonzero"/><use xlink:href="#gDE0349DC484E50BAF5016F34783DF780" x="2.888" y="0" fill="#000000" fill-rule="nonzero"/><use xlink:href="#g1BE32E763E596CAF009BE26C5F601CCD" x="7.336" y="0" fill="#000000" fill-rule="nonzero"/><use xlink:href="#g925D7ADFA44A6B309BF6DC7C1495698F" x="10.488" y="0" fill="#000000" fill-rule="nonzero"/><use xlink:href="#gFE308F832C8CED7BB7DF7E9C87A0AB8D" x="13.6" y="0" fill="#000000" fill-rule="nonzero"/><use xlink:href="#g46AD42B3AA0EAEB25B78992D51403E99" x="16.736" y="0" fill="#000000" fill-rule="nonzero"/><use xlink:href="#g27165273CFB716AC9FD6E3E5AE7F42D3" x="21.184" y="0" fill="#000000" fill-rule="nonzero"/><use xlink:href="#g925D7ADFA44A6B309BF6DC7C1495698F" x="24.736" y="0" fill="#000000" fill-rule="nonzero"/><use xlink:href="#g335F63EA719C187F62D2F19BB42E6501" x="27.848" y="0" fill="#000000" fill-rule="nonzero"/><use xlink:href="#gCD87B2E80BA7E27C266A364BAD460328" x="30.072" y="0" fill="#000000" fill-rule="nonzero"/><use xlink:href="#gDE0349DC484E50BAF5016F34783DF780" x="34.072" y="0" fill="#000000" fill-rule="nonzero"/><use xlink:href="#g1BE32E763E596CAF009BE26C5F601CCD" x="38.52" y="0" fill="#000000" fill-rule="nonzero"/><use xlink:href="#gCD87B2E80BA7E27C266A364BAD460328" x="44.336" y="0" fill="#000000" fill-rule="nonzero"/><use xlink:href="#gDE0349DC484E50BAF5016F34783DF780" x="48.336" y="0" fill="#000000" fill-rule="nonzero"/><use xlink:href="#g92E2FB791B3CDA75FED06AD07BAA7CB4" x="55.448" y="0" fill="#000000" fill-rule="nonzero"/><use xlink:href="#gCD87B2E80BA7E27C266A364BAD460328" x="59.896" y="0" fill="#000000" fill-rule="nonzero"/><use xlink:href="#gDAF521B1EAD7B5C758B95F2EE5F998D2" x="63.672" y="0" fill="#000000" fill-rule="nonzero"/><use xlink:href="#g925D7ADFA44A6B309BF6DC7C1495698F" x="72.112" y="0" fill="#000000" fill-rule="nonzero"/><use xlink:href="#gCD87B2E80BA7E27C266A364BAD460328" x="75.224" y="0" fill="#000000" fill-rule="nonzero"/><use xlink:href="#g46AD42B3AA0EAEB25B78992D51403E99" x="81.888" y="0" fill="#000000" fill-rule="nonzero"/><use xlink:href="#g1BE32E763E596CAF009BE26C5F601CCD" x="86.336" y="0" fill="#000000" fill-rule="nonzero"/><use xlink:href="#g9841D28529CB7B127A09CBC3B96BCA1C" x="89.488" y="0" fill="#000000" fill-rule="nonzero"/><use xlink:href="#g1BE32E763E596CAF009BE26C5F601CCD" x="95.704" y="0" fill="#000000" fill-rule="nonzero"/><use xlink:href="#gCD87B2E80BA7E27C266A364BAD460328" x="98.856" y="0" fill="#000000" fill-rule="nonzero"/><use xlink:href="#gB83E1D2D3EC08EAE582953B7BB2A24B0" x="102.856" y="0" fill="#000000" fill-rule="nonzero"/><use xlink:href="#g9841D28529CB7B127A09CBC3B96BCA1C" x="109.52" y="0" fill="#000000" fill-rule="nonzero"/><use xlink:href="#g925D7ADFA44A6B309BF6DC7C1495698F" x="113.072" y="0" fill="#000000" fill-rule="nonzero"/><use xlink:href="#g92E2FB791B3CDA75FED06AD07BAA7CB4" x="116.184" y="0" fill="#000000" fill-rule="nonzero"/><use xlink:href="#g335F63EA719C187F62D2F19BB42E6501" x="120.632" y="0" fill="#000000" fill-rule="nonzero"/><use xlink:href="#gDE0349DC484E50BAF5016F34783DF780" x="122.856" y="0" fill="#000000" fill-rule="nonzero"/><use xlink:href="#g36C14003036C8FBFFD781A221CBD184" x="127.304" y="0" fill="#000000" fill-rule="nonzero"/><use xlink:href="#gB4679B678B8385AB5143F590C27FC618" x="131.304" y="0" fill="#000000" fill-rule="nonzero"/></g><path fill="none" stroke="#000000" stroke-width="0.5" stroke-linecap="butt" stroke-linejoin="miter" stroke-miterlimit="4" transform="translate(17.272 26.302)" d="M 0 0v 93.308"/><path fill="none" stroke="#000000" stroke-width="0.5" stroke-linecap="butt" stroke-linejoin="miter" stroke-miterlimit="4" transform="translate(46.7832 26.302)" d="M 0 0v 93.308"/><path fill="none" stroke="#000000" stroke-width="0.5" stroke-linecap="butt" stroke-linejoin="miter" stroke-miterlimit="4" transform="translate(-0.25 42.04)" d="M 0 0h 106.8752"/><path fill="none" stroke="#000000" stroke-width="0.5" stroke-linecap="butt" stroke-linejoin="miter" stroke-miterlimit="4" transform="translate(-0.25 57.504)" d="M 0 0h 106.8752"/><path fill="none" stroke="#000000" stroke-width="0.5" stroke-linecap="butt" stroke-linejoin="miter" stroke-miterlimit="4" transform="translate(-0.25 72.968)" d="M 0 0h 106.8752"/><path fill="none" stroke="#000000" stroke-width="0.5" stroke-linecap="butt" stroke-linejoin="miter" stroke-miterlimit="4" transform="translate(-0.25 88.432)" d="M 0 0h 106.8752"/><path fill="none" stroke="#000000" stroke-width="0.5" stroke-linecap="butt" stroke-linejoin="miter" stroke-miterlimit="4" transform="translate(-0.25 103.896)" d="M 0 0h 106.8752"/><g transform="matrix(1 0 0 -1 5.524 37.028)"><use xlink:href="#gBEB96E0E04437E135753B9A877497299" x="0" y="0" fill="#000000" fill-rule="nonzero"/></g><g transform="matrix(1 0 0 -1 28.4996 37.04)"><use xlink:href="#g73A21BDE9E688EA2CA5C518582DE58AA" x="0" y="0" fill="#000000" fill-rule="nonzero"/></g><g transform="matrix(1 0 0 -1 74.8352 37.04)"><use xlink:href="#g4ADD3C8B8413A4DE8D00350E9A4B82E3" x="0" y="0" fill="#000000" fill-rule="nonzero"/></g><g transform="matrix(1 0 0 -1 6.636 52.504)"><use xlink:href="#g9133B69CFC884A26ED567EA7E95BBE58" x="0" y="0" fill="#000000" fill-rule="nonzero"/></g><g transform="matrix(1 0 0 -1 24.3076 52.504)"><use xlink:href="#g8675C7B42C39721FCAF404DA8195594B" x="0" y="0" fill="#000000" fill-rule="nonzero"/></g><g transform="matrix(1 0 0 -1 28.9476 52.504)"><use xlink:href="#gEC3444D603220EBCEA0E270660357126" x="0" y="0" fill="#000000" fill-rule="nonzero"/></g><g transform="matrix(1 0 0 -1 32.0596 52.504)"><use xlink:href="#g8330DA0CB9C10CBAF3BA2E8C701C5521" x="0" y="0" fill="#000000" fill-rule="nonzero"/></g><g transform="matrix(1 0 0 -1 36.6356 52.504)"><use xlink:href="#g1541B14FD47D9DEF936C34518D1F7277" x="0" y="0" fill="#000000" fill-rule="nonzero"/></g><g transform="matrix(1 0 0 -1 69.1712 52.504)"><use xlink:href="#g912FF8E44AF3C2FF72AE1513CDE6C2F3" x="0" y="0" fill="#000000" fill-rule="nonzero"/></g><g transform="matrix(1 0 0 -1 73.1872 52.504)"><use xlink:href="#gEC3444D603220EBCEA0E270660357126" x="0" y="0" fill="#000000" fill-rule="nonzero"/></g><g transform="matrix(1 0 0 -1 76.2992 52.504)"><use xlink:href="#g8330DA0CB9C10CBAF3BA2E8C701C5521" x="0" y="0" fill="#000000" fill-rule="nonzero"/></g><g transform="matrix(1 0 0 -1 80.8752 52.504)"><use xlink:href="#g1541B14FD47D9DEF936C34518D1F7277" x="0" y="0" fill="#000000" fill-rule="nonzero"/></g><g transform="matrix(1 0 0 -1 6.636 67.968)"><use xlink:href="#gB594B03F0C18A1F8AF835CDF971E0C9" x="0" y="0" fill="#000000" fill-rule="nonzero"/></g><g transform="matrix(1 0 0 -1 22.944 67.968)"><use xlink:href="#g8675C7B42C39721FCAF404DA8195594B" x="0" y="0" fill="#000000" fill-rule="nonzero"/></g><g transform="matrix(1 0 0 -1 27.584 65.064)"><use xlink:href="#gDF0C1B4562B3DC8D7650A849E72561DD" x="0" y="0" fill="#000000" fill-rule="nonzero"/></g><g transform="matrix(1 0 0 -1 30.3112 67.968)"><use xlink:href="#gEC3444D603220EBCEA0E270660357126" x="0" y="0" fill="#000000" fill-rule="nonzero"/></g><g transform="matrix(1 0 0 -1 33.4232 67.968)"><use xlink:href="#g8330DA0CB9C10CBAF3BA2E8C701C5521" x="0" y="0" fill="#000000" fill-rule="nonzero"/></g><g transform="matrix(1 0 0 -1 37.9992 67.968)"><use xlink:href="#g1541B14FD47D9DEF936C34518D1F7277" x="0" y="0" fill="#000000" fill-rule="nonzero"/></g><g transform="matrix(1 0 0 -1 59.553866667 67.964)"><use xlink:href="#gD951841567BAE067D0015F919473B51D" x="0" y="0" fill="#000000" fill-rule="nonzero"/></g><g transform="matrix(1 0 0 -1 66.2072 67.968)"><use xlink:href="#g912FF8E44AF3C2FF72AE1513CDE6C2F3" x="0" y="0" fill="#000000" fill-rule="nonzero"/></g><g transform="matrix(1 0 0 -1 70.2232 67.968)"><use xlink:href="#gEC3444D603220EBCEA0E270660357126" x="0" y="0" fill="#000000" fill-rule="nonzero"/></g><g transform="matrix(1 0 0 -1 73.3352 67.968)"><use xlink:href="#g8330DA0CB9C10CBAF3BA2E8C701C5521" x="0" y="0" fill="#000000" fill-rule="nonzero"/></g><g transform="matrix(1 0 0 -1 77.9112 67.968)"><use xlink:href="#g1541B14FD47D9DEF936C34518D1F7277" x="0" y="0" fill="#000000" fill-rule="nonzero"/></g><g transform="matrix(1 0 0 -1 81.0232 67.968)"><use xlink:href="#gB3EE0C1E16FACFE2BD9A098368C8D596" x="0" y="0" fill="#000000" fill-rule="nonzero"/></g><g transform="matrix(1 0 0 -1 84.580533333 67.968)"><use xlink:href="#g2CD2F34DFF68346566CC4F115AAD9921" x="0" y="0" fill="#000000" fill-rule="nonzero"/></g><g transform="matrix(1 0 0 -1 89.028533333 67.968)"><use xlink:href="#g8330DA0CB9C10CBAF3BA2E8C701C5521" x="0" y="0" fill="#000000" fill-rule="nonzero"/></g><g transform="matrix(1 0 0 -1 6.636 83.432)"><use xlink:href="#g3CFE5A54C9C73579361B916A247ADAE2" x="0" y="0" fill="#000000" fill-rule="nonzero"/></g><g transform="matrix(1 0 0 -1 22.272 83.432)"><use xlink:href="#g8675C7B42C39721FCAF404DA8195594B" x="0" y="0" fill="#000000" fill-rule="nonzero"/></g><g transform="matrix(1 0 0 -1 26.912 80.528)"><use xlink:href="#gE7F6DC195424E4C3589C956C3AB6C9B3" x="0" y="0" fill="#000000" fill-rule="nonzero"/></g><g transform="matrix(1 0 0 -1 30.9832 83.432)"><use xlink:href="#gEC3444D603220EBCEA0E270660357126" x="0" y="0" fill="#000000" fill-rule="nonzero"/></g><g transform="matrix(1 0 0 -1 34.0952 83.432)"><use xlink:href="#g8330DA0CB9C10CBAF3BA2E8C701C5521" x="0" y="0" fill="#000000" fill-rule="nonzero"/></g><g transform="matrix(1 0 0 -1 38.6712 83.432)"><use xlink:href="#g1541B14FD47D9DEF936C34518D1F7277" x="0" y="0" fill="#000000" fill-rule="nonzero"/></g><g transform="matrix(1 0 0 -1 51.7832 83.428)"><use xlink:href="#gDEF0C4096F678E732C9E10B279C08279" x="0" y="0" fill="#000000" fill-rule="nonzero"/></g><g transform="matrix(1 0 0 -1 61.396533333 83.432)"><use xlink:href="#g912FF8E44AF3C2FF72AE1513CDE6C2F3" x="0" y="0" fill="#000000" fill-rule="nonzero"/></g><g transform="matrix(1 0 0 -1 65.412533333 83.432)"><use xlink:href="#gEC3444D603220EBCEA0E270660357126" x="0" y="0" fill="#000000" fill-rule="nonzero"/></g><g transform="matrix(1 0 0 -1 68.524533333 83.432)"><use xlink:href="#g8330DA0CB9C10CBAF3BA2E8C701C5521" x="0" y="0" fill="#000000" fill-rule="nonzero"/></g><g transform="matrix(1 0 0 -1 73.100533333 83.432)"><use xlink:href="#g1541B14FD47D9DEF936C34518D1F7277" x="0" y="0" fill="#000000" fill-rule="nonzero"/></g><g transform="matrix(1 0 0 -1 76.212533333 83.432)"><use xlink:href="#gB3EE0C1E16FACFE2BD9A098368C8D596" x="0" y="0" fill="#000000" fill-rule="nonzero"/></g><g transform="matrix(1 0 0 -1 79.769866667 83.432)"><use xlink:href="#g2CD2F34DFF68346566CC4F115AAD9921" x="0" y="0" fill="#000000" fill-rule="nonzero"/></g><g transform="matrix(1 0 0 -1 84.217866667 83.432)"><use xlink:href="#g8330DA0CB9C10CBAF3BA2E8C701C5521" x="0" y="0" fill="#000000" fill-rule="nonzero"/></g><g transform="matrix(1 0 0 -1 88.793866667 83.432)"><use xlink:href="#gB3EE0C1E16FACFE2BD9A098368C8D596" x="0" y="0" fill="#000000" fill-rule="nonzero"/></g><g transform="matrix(1 0 0 -1 92.3512 83.432)"><use xlink:href="#g2CD2F34DFF68346566CC4F115AAD9921" x="0" y="0" fill="#000000" fill-rule="nonzero"/></g><g transform="matrix(1 0 0 -1 96.7992 83.432)"><use xlink:href="#g8330DA0CB9C10CBAF3BA2E8C701C5521" x="0" y="0" fill="#000000" fill-rule="nonzero"/></g><g transform="matrix(1 0 0 -1 7.256 98.896)"><use xlink:href="#g992ECDDC1C7D73E0587DA6A48C7B852F" x="0" y="0" fill="#000000" fill-rule="nonzero"/></g><g transform="matrix(1 0 0 -1 28.6796 98.896)"><use xlink:href="#g3B3F02F2E5872F05AAD362EE20B1F8D5" x="0" y="0" fill="#000000" fill-rule="nonzero"/></g><g transform="matrix(1 0 0 -1 73.2312 98.896)"><use xlink:href="#g3B3F02F2E5872F05AAD362EE20B1F8D5" x="0" y="0" fill="#000000" fill-rule="nonzero"/></g><g transform="matrix(1 0 0 -1 5 114.36)"><use xlink:href="#g629B7864608344627E69514CDD20525D" x="0" y="0" fill="#000000" fill-rule="nonzero"/></g><g transform="matrix(1 0 0 -1 26.0452 114.36)"><use xlink:href="#g393F10E89EF78CC6F31343E6283C37B8" x="0" y="0" fill="#000000" fill-rule="nonzero"/></g><g transform="matrix(1 0 0 -1 32.0292 116.336)"><use xlink:href="#g880EF64D8EB75B4327D5E5F3865935A2" x="0" y="0" fill="#000000" fill-rule="nonzero"/></g><g transform="matrix(1 0 0 -1 72.0288 114.36)"><use xlink:href="#g32A364B32AF0FAB04981338FA7E64C80" x="0" y="0" fill="#000000" fill-rule="nonzero"/></g><g transform="matrix(1 0 0 -1 75.1488 116.336)"><use xlink:href="#g880EF64D8EB75B4327D5E5F3865935A2" x="0" y="0" fill="#000000" fill-rule="nonzero"/></g></g></g></g></g></g><g transform="matrix(1 0 0 -1 819.88976378 582.739590551)"><use xlink:href="#g8369A34B859F17BC3B5E306D8A5D7A0B" x="0" y="0" fill="#000000" fill-rule="nonzero"/></g><defs><symbol id="g720592C206A90E0CBE32C853C0B238BE" overflow="visible"><path d="M 0 0m 5.5328 0v 0.5264h -1.568v 6.4512c 0 0.2464 0 0.3584 -0.2912 0.3584c -0.1232 0 -0.1456 0 -0.2464 -0.0784c -0.8624 -0.6384 -2.016 -0.6384 -2.2512 -0.6384h -0.224v -0.5264h 0.224c 0.1792 0 0.7952 0.0112 1.456 0.224v -5.7904h -1.5568v -0.5264c 0.4928 0.0336 1.68 0.0336 2.2288 0.0336c 0.5488 0 1.736 0 2.2288 -0.0336Z "/></symbol><symbol id="gFF0879FEF4D136BCCA72FD2246E2DEA1" overflow="visible"><path d="M 0 0m 2.6544 0.8736c 0 0.4816 -0.392 0.8736 -0.8736 0.8736c -0.4816 0 -0.8736 -0.392 -0.8736 -0.8736c 0 -0.4816 0.392 -0.8736 0.8736 -0.8736c 0.4816 0 0.8736 0.392 0.8736 0.8736Z "/></symbol><symbol id="gCBBAA4FAF505A1E6ED64F6299A4CD466" overflow="visible"><path d="M 0 0m 6.4288 2.2736c 0 1.2432 -0.9072 2.1504 -1.9264 2.3632l -1.624 0.3472c -0.448 0.1008 -1.0752 0.4816 -1.0752 1.1648c 0 0.4816 0.3136 1.176 1.4336 1.176c 0.896 0 2.0272 -0.3808 2.2848 -1.904c 0.0448 -0.2688 0.0448 -0.2912 0.28 -0.2912c 0.2688 0 0.2688 0.056 0.2688 0.3136v 2.0496c 0 0.2128 0 0.3136 -0.2016 0.3136c -0.0896 0 -0.1008 -0.0112 -0.224 -0.1232l -0.504 -0.4928c -0.6496 0.5152 -1.3776 0.616 -1.9152 0.616c -1.7024 0 -2.5088 -1.0752 -2.5088 -2.2512c 0 -0.728 0.3696 -1.2432 0.6048 -1.4896c 0.5488 -0.5488 0.9296 -0.6272 2.1504 -0.896c 0.9856 -0.2128 1.176 -0.2464 1.4224 -0.4816c 0.168 -0.168 0.448 -0.4592 0.448 -0.9744c 0 -0.5376 -0.2912 -1.3104 -1.456 -1.3104c -0.8512 0 -2.5536 0.224 -2.6432 1.8928c -0.0112 0.2016 -0.0112 0.2576 -0.2576 0.2576c -0.2688 0 -0.2688 -0.0672 -0.2688 -0.3248v -2.0384c 0 -0.2128 0 -0.3136 0.2016 -0.3136c 0.1008 0 0.1232 0.0224 0.2128 0.1008l 0.5152 0.5152c 0.7392 -0.5488 1.7808 -0.616 2.24 -0.616c 1.848 0 2.5424 1.2656 2.5424 2.3968Z "/></symbol><symbol id="g726A98C0702606A3F415D391682BB070" overflow="visible"><path d="M 0 0m 5.5328 1.3104c 0 0.2016 -0.2128 0.2016 -0.2688 0.2016c -0.1904 0 -0.2128 -0.056 -0.28 -0.2352c -0.2352 -0.5376 -0.8736 -0.896 -1.6016 -0.896c -1.5792 0 -1.5904 1.4896 -1.5904 2.0608h 3.3824c 0.2464 0 0.3584 0 0.3584 0.3024c 0 0.3472 -0.0672 1.1648 -0.6272 1.7248c -0.4144 0.4032 -1.008 0.6048 -1.7808 0.6048c -1.792 0 -2.7664 -1.1536 -2.7664 -2.5536c 0 -1.5008 1.12 -2.5872 2.9232 -2.5872c 1.7696 0 2.2512 1.1872 2.2512 1.3776Z m -1.064 1.5008h -2.6768c 0.0224 0.4368 0.0336 0.9072 0.2688 1.2768c 0.2912 0.448 0.7392 0.5824 1.064 0.5824c 1.3104 0 1.3328 -1.4672 1.344 -1.8592Z "/></symbol><symbol id="gDE2C9666E6F1976793D29F9FDA8EC622" overflow="visible"><path d="M 0 0m 5.3536 1.3104c 0 0.1568 -0.1568 0.1568 -0.2688 0.1568c -0.2016 0 -0.2128 -0.0224 -0.2688 -0.168c -0.2912 -0.7056 -0.8288 -0.9184 -1.4 -0.9184c -1.5568 0 -1.5568 1.6464 -1.5568 2.1616c 0 0.6272 0 2.0832 1.4448 2.0832c 0.392 0 0.5824 -0.0336 0.728 -0.0672c -0.2016 -0.1792 -0.224 -0.4144 -0.224 -0.5152c 0 -0.4928 0.392 -0.7056 0.6944 -0.7056c 0.3472 0 0.7056 0.2352 0.7056 0.7056c 0 0.9632 -1.2992 1.0304 -1.9488 1.0304c -2.0048 0 -2.8336 -1.288 -2.8336 -2.5872c 0 -1.4896 1.0528 -2.5536 2.7776 -2.5536c 1.8144 0 2.1504 1.2992 2.1504 1.3776Z "/></symbol><symbol id="gFBC22C22641B748BCA1D12C62CAAB74B" overflow="visible"><path d="M 0 0m 4.2784 1.3888v 0.5936h -0.5264v -0.5712c 0 -0.7616 -0.3584 -1.0304 -0.672 -1.0304c -0.6496 0 -0.6496 0.7168 -0.6496 0.9744v 3.0912h 1.6352v 0.5264h -1.6352v 2.1392h -0.5264c -0.0112 -1.12 -0.56 -2.2288 -1.6688 -2.2624v -0.4032h 0.9184v -3.0688c 0 -1.1984 0.9744 -1.4448 1.7696 -1.4448c 0.8512 0 1.3552 0.6384 1.3552 1.456Z "/></symbol><symbol id="gD358EB12632BFBA5386E6BADA2532825" overflow="visible"><path d="M 0 0m 3.2032 0v 0.5264h -0.6944v 4.5136l -1.9488 -0.0896v -0.5264c 0.6608 0 0.7392 0 0.7392 -0.4368v -3.4608h -0.7728v -0.5264l 1.3664 0.0336Z m -0.5376 6.7984c 0 0.4816 -0.392 0.8736 -0.8736 0.8736c -0.4816 0 -0.8736 -0.392 -0.8736 -0.8736c 0 -0.4816 0.392 -0.8736 0.8736 -0.8736c 0.4816 0 0.8736 0.392 0.8736 0.8736Z "/></symbol><symbol id="g1490C94ACCCEEB86E89F7D260D363650" overflow="visible"><path d="M 0 0m 6.0704 2.4416c 0 1.5008 -1.0304 2.632 -2.856 2.632c -1.8368 0 -2.856 -1.1424 -2.856 -2.632c 0 -1.3888 0.9856 -2.5088 2.856 -2.5088c 1.8816 0 2.856 1.1312 2.856 2.5088Z m -1.4336 0.1232c 0 -0.9744 0 -2.184 -1.4224 -2.184c -1.4224 0 -1.4224 1.2096 -1.4224 2.184c 0 0.504 0 1.0752 0.1904 1.456c 0.2128 0.4144 0.6832 0.6496 1.232 0.6496c 0.4704 0 0.9408 -0.1792 1.1872 -0.5712c 0.2352 -0.3808 0.2352 -0.9968 0.2352 -1.5344Z "/></symbol><symbol id="gF477E5FD5C4BCC63D8E377A9CCACDF3F" overflow="visible"><path d="M 0 0m 6.888 0v 0.5264h -0.7728v 2.9008c 0 1.176 -0.6048 1.6128 -1.7248 1.6128c -1.0752 0 -1.6688 -0.6384 -1.96 -1.2096v 1.2096l -1.9264 -0.0896v -0.5264c 0.6944 0 0.7728 0 0.7728 -0.4368v -3.4608h -0.7728v -0.5264l 1.4112 0.0336l 1.4112 -0.0336v 0.5264h -0.7728v 2.3408c 0 1.2208 0.9632 1.7696 1.6688 1.7696c 0.3808 0 0.616 -0.2352 0.616 -1.0864v -3.024h -0.7728v -0.5264l 1.4112 0.0336Z "/></symbol><symbol id="g9C9084802398B33BCA1A739D48B9EB40" overflow="visible"><path d="M 0 0m 4.7424 0v 0.4512h -1.344v 5.5296c 0 0.2112 0 0.3072 -0.2496 0.3072c -0.1056 0 -0.1248 0 -0.2112 -0.0672c -0.7392 -0.5472 -1.728 -0.5472 -1.9296 -0.5472h -0.192v -0.4512h 0.192c 0.1536 0 0.6816 0.0096 1.248 0.192v -4.9632h -1.3344v -0.4512c 0.4224 0.0288 1.44 0.0288 1.9104 0.0288c 0.4704 0 1.488 0 1.9104 -0.0288Z "/></symbol><symbol id="gCC9110954FB371736765220A111C4AC5" overflow="visible"><path d="M 0 0m 2.2752 0.7488c 0 0.4128 -0.336 0.7488 -0.7488 0.7488c -0.4128 0 -0.7488 -0.336 -0.7488 -0.7488c 0 -0.4128 0.336 -0.7488 0.7488 -0.7488c 0.4128 0 0.7488 0.336 0.7488 0.7488Z "/></symbol><symbol id="gD540B183D8F4EA185415B77CDB5F55C3" overflow="visible"><path d="M 0 0m 5.5104 1.9488c 0 1.0656 -0.7776 1.8432 -1.6512 2.0256l -1.392 0.2976c -0.384 0.0864 -0.9216 0.4128 -0.9216 0.9984c 0 0.4128 0.2688 1.008 1.2288 1.008c 0.768 0 1.7376 -0.3264 1.9584 -1.632c 0.0384 -0.2304 0.0384 -0.2496 0.24 -0.2496c 0.2304 0 0.2304 0.048 0.2304 0.2688v 1.7568c 0 0.1824 0 0.2688 -0.1728 0.2688c -0.0768 0 -0.0864 -0.0096 -0.192 -0.1056l -0.432 -0.4224c -0.5568 0.4416 -1.1808 0.528 -1.6416 0.528c -1.4592 0 -2.1504 -0.9216 -2.1504 -1.9296c 0 -0.624 0.3168 -1.0656 0.5184 -1.2768c 0.4704 -0.4704 0.7968 -0.5376 1.8432 -0.768c 0.8448 -0.1824 1.008 -0.2112 1.2192 -0.4128c 0.144 -0.144 0.384 -0.3936 0.384 -0.8352c 0 -0.4608 -0.2496 -1.1232 -1.248 -1.1232c -0.7296 0 -2.1888 0.192 -2.2656 1.6224c -0.0096 0.1728 -0.0096 0.2208 -0.2208 0.2208c -0.2304 0 -0.2304 -0.0576 -0.2304 -0.2784v -1.7472c 0 -0.1824 0 -0.2688 0.1728 -0.2688c 0.0864 0 0.1056 0.0192 0.1824 0.0864l 0.4416 0.4416c 0.6336 -0.4704 1.5264 -0.528 1.92 -0.528c 1.584 0 2.1792 1.0848 2.1792 2.0544Z "/></symbol><symbol id="g1E54B5A05AA78D0956F5705E7F363F7A" overflow="visible"><path d="M 0 0m 5.904 0v 0.4512c -0.5952 0 -0.6624 0 -0.6624 0.3744v 3.4944l -1.7568 -0.0768v -0.4512c 0.5952 0 0.6624 0 0.6624 -0.3744v -1.8336c 0 -0.7872 -0.4896 -1.296 -1.1904 -1.296c -0.7392 0 -0.768 0.24 -0.768 0.7584v 3.2736l -1.7568 -0.0768v -0.4512c 0.5952 0 0.6624 0 0.6624 -0.3744v -2.2368c 0 -1.0272 0.7776 -1.2384 1.728 -1.2384c 0.2496 0 0.9408 0 1.3824 0.7488v -0.7488Z "/></symbol><symbol id="g82B3BAF4F7103B9A84D74438C4F18F5A" overflow="visible"><path d="M 0 0m 5.76 2.1408c 0 1.2768 -0.9024 2.1792 -2.2944 2.1792c -0.7008 0 -1.1808 -0.2784 -1.4112 -0.4704v 2.8128l -1.6992 -0.0768v -0.4512c 0.5952 0 0.6624 0 0.6624 -0.3744v -5.76h 0.4512c 0.1536 0.1824 0.3168 0.3552 0.4704 0.5376c 0.0768 -0.0768 0.5472 -0.5952 1.4016 -0.5952c 1.4304 0 2.4192 0.864 2.4192 2.1984Z m -1.2288 0c 0 -0.4512 0 -0.9792 -0.2496 -1.3536c -0.2784 -0.3936 -0.72 -0.4992 -1.0272 -0.4992c -0.672 0 -1.0464 0.5184 -1.1424 0.6624v 2.4096c 0.2592 0.336 0.72 0.6144 1.248 0.6144c 1.1712 0 1.1712 -1.1616 1.1712 -1.8336Z "/></symbol><symbol id="g3378C7CB4E8C37DBF8A2102DF13CF461" overflow="visible"><path d="M 0 0m 3.0528 1.6704v 0.9312h -2.928v -0.9312Z "/></symbol><symbol id="gEA106C8D45334AC1395BAC48D7F52ABC" overflow="visible"><path d="M 0 0m 3.984 1.344c 0 0.4128 -0.192 0.7488 -0.528 1.0176c -0.3744 0.2784 -0.6816 0.336 -1.4304 0.4608c -0.3552 0.0672 -0.9792 0.1728 -0.9792 0.624c 0 0.5952 0.8928 0.5952 1.0752 0.5952c 0.72 0 1.0848 -0.2784 1.1328 -0.8064c 0.0096 -0.144 0.0192 -0.192 0.2208 -0.192c 0.2304 0 0.2304 0.048 0.2304 0.2688v 0.768c 0 0.1824 0 0.2688 -0.1728 0.2688c -0.0384 0 -0.0576 0 -0.432 -0.1824c -0.2496 0.1248 -0.5856 0.1824 -0.9696 0.1824c -0.288 0 -1.7664 0 -1.7664 -1.2576c 0 -0.384 0.192 -0.6432 0.384 -0.8064c 0.384 -0.336 0.7488 -0.3936 1.488 -0.528c 0.3456 -0.0576 1.0656 -0.1824 1.0656 -0.7488c 0 -0.72 -0.8832 -0.72 -1.0944 -0.72c -1.0176 0 -1.2672 0.7008 -1.3824 1.1136c -0.048 0.1344 -0.096 0.1344 -0.2304 0.1344c -0.2304 0 -0.2304 -0.0576 -0.2304 -0.2784v -1.0464c 0 -0.1824 0 -0.2688 0.1728 -0.2688c 0.0672 0 0.0864 0 0.288 0.144l 0.2496 0.1632c 0.4416 -0.3072 0.9408 -0.3072 1.1328 -0.3072c 0.2976 0 1.776 0 1.776 1.4016Z "/></symbol><symbol id="gCA08003471391880A99EB23C16FC473" overflow="visible"><path d="M 0 0m 4.7424 1.1232c 0 0.1728 -0.1824 0.1728 -0.2304 0.1728c -0.1632 0 -0.1824 -0.048 -0.24 -0.2016c -0.2016 -0.4608 -0.7488 -0.768 -1.3728 -0.768c -1.3536 0 -1.3632 1.2768 -1.3632 1.7664h 2.8992c 0.2112 0 0.3072 0 0.3072 0.2592c 0 0.2976 -0.0576 0.9984 -0.5376 1.4784c -0.3552 0.3456 -0.864 0.5184 -1.5264 0.5184c -1.536 0 -2.3712 -0.9888 -2.3712 -2.1888c 0 -1.2864 0.96 -2.2176 2.5056 -2.2176c 1.5168 0 1.9296 1.0176 1.9296 1.1808Z m -0.912 1.2864h -2.2944c 0.0192 0.3744 0.0288 0.7776 0.2304 1.0944c 0.2496 0.384 0.6336 0.4992 0.912 0.4992c 1.1232 0 1.1424 -1.2576 1.152 -1.5936Z "/></symbol><symbol id="gF57C82639A881B614A87F250305BB129" overflow="visible"><path d="M 0 0m 4.5888 1.1232c 0 0.1344 -0.1344 0.1344 -0.2304 0.1344c -0.1728 0 -0.1824 -0.0192 -0.2304 -0.144c -0.2496 -0.6048 -0.7104 -0.7872 -1.2 -0.7872c -1.3344 0 -1.3344 1.4112 -1.3344 1.8528c 0 0.5376 0 1.7856 1.2384 1.7856c 0.336 0 0.4992 -0.0288 0.624 -0.0576c -0.1728 -0.1536 -0.192 -0.3552 -0.192 -0.4416c 0 -0.4224 0.336 -0.6048 0.5952 -0.6048c 0.2976 0 0.6048 0.2016 0.6048 0.6048c 0 0.8256 -1.1136 0.8832 -1.6704 0.8832c -1.7184 0 -2.4288 -1.104 -2.4288 -2.2176c 0 -1.2768 0.9024 -2.1888 2.3808 -2.1888c 1.5552 0 1.8432 1.1136 1.8432 1.1808Z "/></symbol><symbol id="g2B121C185EC61BE325ECD8E998D9D367" overflow="visible"><path d="M 0 0m 3.6672 1.1904v 0.5088h -0.4512v -0.4896c 0 -0.6528 -0.3072 -0.8832 -0.576 -0.8832c -0.5568 0 -0.5568 0.6144 -0.5568 0.8352v 2.6496h 1.4016v 0.4512h -1.4016v 1.8336h -0.4512c -0.0096 -0.96 -0.48 -1.9104 -1.4304 -1.9392v -0.3456h 0.7872v -2.6304c 0 -1.0272 0.8352 -1.2384 1.5168 -1.2384c 0.7296 0 1.1616 0.5472 1.1616 1.248Z "/></symbol><symbol id="g5DD496951A619DBC013646C29603B63E" overflow="visible"><path d="M 0 0m 2.7456 0v 0.4512h -0.5952v 3.8688l -1.6704 -0.0768v -0.4512c 0.5664 0 0.6336 0 0.6336 -0.3744v -2.9664h -0.6624v -0.4512l 1.1712 0.0288Z m -0.4608 5.8272c 0 0.4128 -0.336 0.7488 -0.7488 0.7488c -0.4128 0 -0.7488 -0.336 -0.7488 -0.7488c 0 -0.4128 0.336 -0.7488 0.7488 -0.7488c 0.4128 0 0.7488 0.336 0.7488 0.7488Z "/></symbol><symbol id="gAA24B0F80CAB5E612321AD88C8740CE7" overflow="visible"><path d="M 0 0m 5.2032 2.0928c 0 1.2864 -0.8832 2.256 -2.448 2.256c -1.5744 0 -2.448 -0.9792 -2.448 -2.256c 0 -1.1904 0.8448 -2.1504 2.448 -2.1504c 1.6128 0 2.448 0.9696 2.448 2.1504Z m -1.2288 0.1056c 0 -0.8352 0 -1.872 -1.2192 -1.872c -1.2192 0 -1.2192 1.0368 -1.2192 1.872c 0 0.432 0 0.9216 0.1632 1.248c 0.1824 0.3552 0.5856 0.5568 1.056 0.5568c 0.4032 0 0.8064 -0.1536 1.0176 -0.4896c 0.2016 -0.3264 0.2016 -0.8544 0.2016 -1.3152Z "/></symbol><symbol id="g4602FAC0E26D26D40666FD411C899005" overflow="visible"><path d="M 0 0m 5.904 0v 0.4512h -0.6624v 2.4864c 0 1.008 -0.5184 1.3824 -1.4784 1.3824c -0.9216 0 -1.4304 -0.5472 -1.68 -1.0368v 1.0368l -1.6512 -0.0768v -0.4512c 0.5952 0 0.6624 0 0.6624 -0.3744v -2.9664h -0.6624v -0.4512l 1.2096 0.0288l 1.2096 -0.0288v 0.4512h -0.6624v 2.0064c 0 1.0464 0.8256 1.5168 1.4304 1.5168c 0.3264 0 0.528 -0.2016 0.528 -0.9312v -2.592h -0.6624v -0.4512l 1.2096 0.0288Z "/></symbol><symbol id="g73A21BDE9E688EA2CA5C518582DE58AA" overflow="visible"><path d="M 0 0m 6.536 2.696c 0 1.76 -1.2 2.792 -2.784 2.792h -3.44v -0.376h 0.864v -4.736h -0.864v -0.376h 3.448c 1.576 0 2.776 0.984 2.776 2.696Z m -1.176 0.008c 0 -0.872 -0.096 -1.296 -0.352 -1.656c -0.384 -0.544 -1.088 -0.672 -1.576 -0.672h -1.168v 4.736h 1.168c 0.528 0 1.192 -0.152 1.584 -0.712c 0.28 -0.408 0.344 -0.952 0.344 -1.696Z "/></symbol><symbol id="gEB064D50D1688B109B8D6326D0F91B07" overflow="visible"><path d="M 0 0m 3.952 0.936c 0 0.144 -0.152 0.144 -0.192 0.144c -0.136 0 -0.152 -0.04 -0.2 -0.168c -0.168 -0.384 -0.624 -0.64 -1.144 -0.64c -1.128 0 -1.136 1.064 -1.136 1.472h 2.416c 0.176 0 0.256 0 0.256 0.216c 0 0.248 -0.048 0.832 -0.448 1.232c -0.296 0.288 -0.72 0.432 -1.272 0.432c -1.28 0 -1.976 -0.824 -1.976 -1.824c 0 -1.072 0.8 -1.848 2.088 -1.848c 1.264 0 1.608 0.848 1.608 0.984Z m -0.76 1.072h -1.912c 0.016 0.312 0.024 0.648 0.192 0.912c 0.208 0.32 0.528 0.416 0.76 0.416c 0.936 0 0.952 -1.048 0.96 -1.328Z "/></symbol><symbol id="gA58649015F9FC4DCAB3F63B8C10C8FEC" overflow="visible"><path d="M 0 0m 4.808 0v 0.376h -0.552v 3.256l -1.408 -0.048l -0.008 -0.032h -1.176v 0.784c 0 0.672 0.544 0.976 1.28 0.976c 0.232 0 0.4 -0.04 0.584 -0.144c -0.136 -0.048 -0.352 -0.184 -0.352 -0.504c 0 -0.312 0.232 -0.52 0.52 -0.52c 0.296 0 0.528 0.2 0.528 0.528c 0 0.416 -0.352 0.928 -1.232 0.928c -0.992 0 -2.144 -0.312 -2.144 -1.248v -0.8h -0.6v -0.376h 0.6v -2.8h -0.552v -0.376l 0.984 0.024l 0.984 -0.024v 0.376h -0.552v 2.8h 1.44c 0.192 0 0.24 0 0.24 -0.28v -2.52h -0.552v -0.376l 0.984 0.024Z "/></symbol><symbol id="g13A349DBC508D83BFBFA4DD505310871" overflow="visible"><path d="M 0 0m 4.92 0v 0.376h -0.552v 2.072c 0 0.84 -0.432 1.152 -1.232 1.152c -0.768 0 -1.192 -0.456 -1.4 -0.864v 0.864l -1.376 -0.064v -0.376c 0.496 0 0.552 0 0.552 -0.312v -2.472h -0.552v -0.376l 1.008 0.024l 1.008 -0.024v 0.376h -0.552v 1.672c 0 0.872 0.688 1.264 1.192 1.264c 0.272 0 0.44 -0.168 0.44 -0.776v -2.16h -0.552v -0.376l 1.008 0.024Z "/></symbol><symbol id="g123D1A63C2C8217F84195FEAD352FD93" overflow="visible"><path d="M 0 0m 2.288 0v 0.376h -0.496v 3.224l -1.392 -0.064v -0.376c 0.472 0 0.528 0 0.528 -0.312v -2.472h -0.552v -0.376l 0.976 0.024Z m -0.384 4.856c 0 0.344 -0.28 0.624 -0.624 0.624c -0.344 0 -0.624 -0.28 -0.624 -0.624c 0 -0.344 0.28 -0.624 0.624 -0.624c 0.344 0 0.624 0.28 0.624 0.624Z "/></symbol><symbol id="g1B33DBF334E0CFAF79E2207AD577A75B" overflow="visible"><path d="M 0 0m 3.056 0.992v 0.424h -0.376v -0.408c 0 -0.544 -0.256 -0.736 -0.48 -0.736c -0.464 0 -0.464 0.512 -0.464 0.696v 2.208h 1.168v 0.376h -1.168v 1.528h -0.376c -0.008 -0.8 -0.4 -1.592 -1.192 -1.616v -0.288h 0.656v -2.192c 0 -0.856 0.696 -1.032 1.264 -1.032c 0.608 0 0.968 0.456 0.968 1.04Z "/></symbol><symbol id="gD184BC7B568F9D15A4685730033DA8FB" overflow="visible"><path d="M 0 0m 4.336 1.744c 0 1.072 -0.736 1.88 -2.04 1.88c -1.312 0 -2.04 -0.816 -2.04 -1.88c 0 -0.992 0.704 -1.792 2.04 -1.792c 1.344 0 2.04 0.808 2.04 1.792Z m -1.024 0.088c 0 -0.696 0 -1.56 -1.016 -1.56c -1.016 0 -1.016 0.864 -1.016 1.56c 0 0.36 0 0.768 0.136 1.04c 0.152 0.296 0.488 0.464 0.88 0.464c 0.336 0 0.672 -0.128 0.848 -0.408c 0.168 -0.272 0.168 -0.712 0.168 -1.096Z "/></symbol><symbol id="gB07DBEF34BE29BE34FA82B3FB01E2D71" overflow="visible"><path d="M 0 0m 0.448 1.664v -0.848c 0 -0.896 0 -0.928 0.008 -0.944c 0.016 -0.032 0.032 -0.048 0.08 -0.048c 0.032 0 0.048 0.008 0.064 0.024c 0.008 0.008 0.08 0.12 0.176 0.264l 0.168 0.272c 0.344 -0.344 0.824 -0.56 1.472 -0.56c 0.907180908 0 1.576 0.76437561 1.576 1.664c 0 0.784 -0.512 1.432 -1.128 1.6c -0.027828125 0.007585938 -1.128 0.272 -1.176 0.288c -0.386765015 0.128921631 -0.728 0.504 -0.728 1c 0 0.608 0.52 1.04 1.064 1.04c 0.965540039 0 1.44 -0.72 1.552 -1.672c 0.008464355 -0.071946777 0.024 -0.096 0.096 -0.096c 0.056 0 0.088 0.016 0.104 0.048v 1.824c 0 0.112 -0.056 0.128 -0.096 0.128c -0.032 0 -0.050421875 -0.013898438 -0.064 -0.032c -0.024 -0.032 -0.312 -0.512 -0.328 -0.528h -0.008c -0.272 0.256 -0.552 0.552 -1.312 0.552c -0.906210938 0 -1.52 -0.792 -1.52 -1.512c 0 -0.932616211 0.622025391 -1.365916992 1.056 -1.504c 0.144 -0.056 1.168 -0.28 1.288 -0.336c 0.354830322 -0.133061523 0.68 -0.527355103 0.68 -1.072000122c 0 -0.504913086 -0.325290527 -1.136 -1.064 -1.136c -0.976 0 -1.688 0.536 -1.752 1.496l -0.008 0.144c -0.004430786 0.079753906 -0.04 0.096 -0.104 0.096c -0.088 0 -0.096 -0.056 -0.096 -0.152Z "/></symbol><symbol id="gCD87B2E80BA7E27C266A364BAD460328" overflow="visible"><path d="M 0 0m 2 0.112c -0.48 0 -0.848 0.328 -0.992 0.72c -0.088 0.248 -0.12 0.528 -0.12 1.04c 0 0.512 0.064 0.848 0.28 1.12c 0.169809082 0.21383374 0.472 0.416 0.808 0.416c 0.336 0 0.704 -0.184 0.848 -0.416c 0.216 -0.272 0.28 -0.608 0.28 -1.12c 0 -0.512 -0.032 -0.792 -0.12 -1.04c -0.144 -0.392 -0.504 -0.72 -0.984 -0.72Z m 1.768 1.6c 0 1.024 -0.8 1.872 -1.768 1.872c -1 0 -1.776 -0.872 -1.776 -1.872c 0 -1.032 0.832 -1.8 1.768 -1.8c 0.968 0 1.776 0.784 1.776 1.8Z "/></symbol><symbol id="gB83E1D2D3EC08EAE582953B7BB2A24B0" overflow="visible"><path d="M 0 0m 3.104 2.456v -1.864c 0 -0.30386438 -0.088 -0.344 -0.496 -0.344h -0.128v -0.248c 0.104 0 0.72 0.024 0.896 0.024c 0.232 0 0.712 -0.024 0.904 -0.024v 0.248h -0.136c -0.4 0 -0.488 0.04 -0.488 0.336v 1.504c 0 0.776 0.528 1.272 1.08 1.272c 0.384 0 0.592 -0.264 0.592 -0.856v -1.904c 0 -0.32 -0.088 -0.352 -0.496 -0.352h -0.128v -0.248c 0.104 0 0.664 0.024 0.808 0.024c 0.352 0 0.808 -0.024 0.992 -0.024v 0.248c -0.408 0 -0.624 0 -0.624 0.248v 1.936c 0 0.824 -0.424 1.104 -1.08 1.104c -0.56 0 -0.936 -0.312 -1.168 -0.776c -0.08 0.52 -0.464 0.776 -1.048 0.776c -0.6 0 -0.968 -0.336 -1.2 -0.832v 0.832l -1.128 -0.088v -0.248c 0.576 0 0.624 -0.072 0.624 -0.432v -2.216c 0 -0.28 -0.128 -0.304 -0.496 -0.304h -0.128v -0.248c 0.192 0 0.664 0.024 0.816 0.024c 0.344 0 0.792 -0.024 0.984 -0.024v 0.248c -0.528 0 -0.624 0 -0.624 0.36v 1.488c 0 0.76 0.52 1.264 1.08 1.264c 0.4 0 0.592 -0.256 0.592 -0.904Z "/></symbol><symbol id="g9841D28529CB7B127A09CBC3B96BCA1C" overflow="visible"><path d="M 0 0m 3.104 0.92c -0.256 -0.736 -0.88 -0.808 -1.072 -0.808c -0.28 0 -0.472 0.104 -0.648 0.248c -0.336 0.28 -0.496 0.72 -0.496 1.368v 0.12h 2.288c 0.128 0 0.144 0.024 0.144 0.16c 0 0.92 -0.52 1.576 -1.432 1.576c -0.976 0 -1.664 -0.856 -1.664 -1.824c 0 -1.104 0.856 -1.848 1.776 -1.848c 0.944 0 1.32 0.872 1.32 1.04c 0 0.048 -0.024 0.096 -0.096 0.096c -0.056 0 -0.088 -0.032 -0.12 -0.128Z m -1.224 2.488c 0.808 0 0.912 -1.04 0.912 -1.36v -0.024h -1.896v 0.056c 0.064 1.056 0.664 1.328 0.984 1.328Z "/></symbol><symbol id="g925D7ADFA44A6B309BF6DC7C1495698F" overflow="visible"><path d="M 0 0m 2.456 0.976v 0.472h 0.2v -0.472c 0 -0.592 -0.250039063 -1.064 -0.898156006 -1.064c -0.725843994 0 -0.925843994 0.592 -0.925843994 1.112v 2.176h -0.68v 0.176c 0.704 0.024 1.024 0.76 1.032 1.544h 0.2v -1.464h 1.144v -0.256h -1.144v -2.264c 0 -0.416 0.144 -0.824 0.518616333 -0.824c 0.396039917 0 0.553383667 0.456 0.553383667 0.864Z "/></symbol><symbol id="g92E2FB791B3CDA75FED06AD07BAA7CB4" overflow="visible"><path d="M 0 0m 2.568605469 3.536129883c 0.73525 0 1.087394531 -0.352466797 1.087394531 -1.104130127v -1.912c 0 -0.262164063 0.16 -0.272 0.624 -0.272v -0.248c -0.192 0 -0.648 0.024 -0.992 0.024c -0.144 0 -0.704 -0.024 -0.808 -0.024v 0.248c 0.016126465 0 0.03186377 -6.104e-6 0.047220215 -6.104e-6c 0.456967773 0 0.576779785 0.005374878 0.576779785 0.336006104v 1.856c 0 0.64 -0.192 0.904 -0.592 0.904c -0.422125 0 -1.08 -0.376 -1.08 -1.28v -1.448c 0 -0.351948486 0.056 -0.368 0.624 -0.368v -0.248c -0.104 0 -0.712 0.024 -0.856 0.024c -0.352 0 -0.76 -0.024 -0.944 -0.024v 0.248c 0.592 0 0.624 0.032 0.624 0.376v 4.176000244c 0 0.36 -0.088 0.416 -0.624 0.416v 0.248l 1.152 0.088v -2.784h 0.008c 0.352 0.736 0.952004883 0.768129883 1.152605469 0.768129883Z "/></symbol><symbol id="g335F63EA719C187F62D2F19BB42E6501" overflow="visible"><path d="M 0 0m 0.264 0v 0.248c 0.488 0 0.624 0.002257813 0.624 0.296v 2.248c 0 0.356226563 -0.088 0.408 -0.592 0.408v 0.248l 1.12 0.088v -2.992c 0 -0.288124268 0.12 -0.296 0.56 -0.296v -0.248c -0.184 0 -0.528 0.024 -0.84 0.024c -0.28 0 -0.68 -0.024 -0.872 -0.024Z m 0.768 4.504c 0.248 0 0.416 0.176 0.416 0.424c 0 0.272 -0.216 0.416 -0.424 0.416c -0.208 0 -0.416 -0.136 -0.416 -0.416c 0 -0.2 0.12 -0.424 0.424 -0.424Z "/></symbol><symbol id="gDE0349DC484E50BAF5016F34783DF780" overflow="visible"><path d="M 0 0m 3.656 2.416c 0 0.808 -0.376 1.12 -1.112 1.12c -0.592 0 -0.968 -0.4 -1.16 -0.84v 0.84l -1.128 -0.088v -0.248h 0.104c 0.512 0 0.52 -0.13853125 0.52 -0.472v -2.136c 0 -0.336 -0.088 -0.344 -0.624 -0.344v -0.248c 0.184 0 0.704 0.024 0.896 0.024c 0.144 0 0.8 -0.024 0.904 -0.024v 0.248c -0.528 0 -0.624 0.020391357 -0.624 0.328v 1.488c 0 0.808 0.552 1.28 1.08 1.28c 0.368 0 0.592 -0.242644531 0.592 -0.824v -1.944c 0 -0.318445313 -0.096 -0.328 -0.624 -0.328v -0.248c 0.184 0.008 0.624 0.024 0.976 0.024c 0.144 0 0.72 -0.016 0.824 -0.024v 0.248h -0.144c -0.432 0 -0.48 0.088473999 -0.48 0.288Z "/></symbol><symbol id="g36C14003036C8FBFFD781A221CBD184" overflow="visible"><path d="M 0 0m 3.464 3.624c -0.288 0 -0.632 -0.152 -0.84 -0.376c -0.208 0.16 -0.48 0.288 -0.856 0.288c -0.784 0 -1.288 -0.584 -1.288 -1.176c 0 -0.344 0.168 -0.6 0.36 -0.824c -0.136 -0.2 -0.232 -0.416 -0.232 -0.664c 0 -0.432 0.28 -0.68 0.352 -0.704c -0.618047729 -0.206015869 -0.736 -0.559861206 -0.736 -0.8c 0 -0.528 0.696 -1.016 1.776 -1.016c 1.066382812 0 1.768 0.476958374 1.768 1.032c 0 0.312 -0.112 0.56 -0.296 0.744c -0.408 0.392 -1.064 0.4 -1.688 0.4h -0.48c -0.248 0 -0.456 0.248 -0.456 0.544c 0 0.136 0.056 0.272 0.136 0.36c 0.208 -0.128 0.44 -0.24 0.784 -0.24c 0.736 0 1.304 0.528 1.304 1.168c 0 0.28 -0.112 0.568 -0.328 0.776c 0.120964355 0.120964355 0.408696289 0.312 0.712 0.312c 0.04 0 0.088 -0.008 0.088 -0.008c -0.072 -0.024 -0.128 -0.096 -0.128 -0.224c 0 -0.128 0.112 -0.224 0.224 -0.224c 0.16 0 0.24 0.112 0.24 0.24c 0 0.150068848 -0.108002197 0.392 -0.416 0.392Z m -0.992 -1.264c 0 -0.408 -0.064 -0.616 -0.224 -0.784c -0.12 -0.104 -0.256 -0.2 -0.48 -0.2c -0.595600952 0 -0.688 0.607199585 -0.688 0.984c 0 0.408 0.056 0.616 0.216 0.784c 0.112 0.112 0.264 0.208 0.496 0.208c 0.595077148 0 0.68 -0.631504883 0.68 -0.992Z m 0.88 -2.992c 0 -0.384 -0.488 -0.824 -1.36 -0.824c -0.72 0 -1.352 0.336 -1.352 0.816c 0 0.384 0.28 0.624 0.616 0.688h 0.928c 0.376 0 1.168 -0.064 1.168 -0.68Z "/></symbol><symbol id="g1BE32E763E596CAF009BE26C5F601CCD" overflow="visible"><path d="M 0 0m 2.68 3.456v -0.92c 0 -0.112 -0.016 -0.144 -0.096 -0.144c -0.096 0 -0.112 0.048 -0.112 0.136c 0 0.12 -0.04 0.904 -0.912 0.904c -0.656 0 -0.912 -0.288 -0.912 -0.6c 0 -0.328 0.272 -0.48 0.512 -0.552c 0.375780518 -0.112734131 0.568 -0.104 0.928 -0.224c 0.509 -0.169664063 0.792 -0.576 0.792 -1.024c 0 -0.536 -0.304 -1.12 -1.296 -1.12c -0.384 0 -0.656 0.128 -0.872 0.344c -0.249615845 -0.288018188 -0.299131714 -0.345151978 -0.378147217 -0.345151978c -0.044864258 0 -0.069852783 0.027268677 -0.069852783 0.169151978v 1.112c 0 0.143993286 0.024 0.168 0.104 0.168c 0.064 0 0.084597168 -0.016687134 0.104 -0.104c 0.064 -0.288 0.154814087 -0.542426636 0.26203125 -0.712c 0.25796875 -0.408 0.630004883 -0.456 0.85796875 -0.456c 0.536 0 0.904 0.248 0.904 0.728c 0 0.368 -0.264 0.568 -0.608 0.68c -0.216498169 0.070487793 -0.784 0.12 -1.12 0.312c -0.264 0.152 -0.504 0.416 -0.504 0.784c 0 0.424 0.264 0.992 1.288 0.992c 0.344 0 0.56 -0.096 0.744 -0.224c 0.208 0.2 0.237757813 0.224 0.296 0.224c 0.048 0 0.088 -0.008 0.088 -0.128Z "/></symbol><symbol id="g86F506794C1829634EFE574FDC60906D" overflow="visible"><path d="M 0 0m 1.96 -0.088c 0.736 0 1.072 0.52 1.08 0.528v -0.528h 0.032c 0 0 1.112 0.088 1.12 0.088h 0.024v 0.248h -0.088c -0.456 0 -0.536 0.088 -0.536 0.408v 4.896h -0.008c -0.056 0 -1.144 -0.088 -1.144 -0.088v -0.248h 0.096c 0.408 0 0.528 -0.08 0.528 -0.376v -1.792c -0.264 0.32 -0.624 0.488 -1.008 0.488c -1.024 0 -1.784 -0.864 -1.784 -1.808c 0 -1.005195557 0.769406128 -1.816 1.688 -1.816Z m 0.056 0.176c -0.296 0 -0.504 0.12 -0.696 0.312c -0.264 0.312 -0.384 0.616 -0.384 1.312c 0 0.208 0.008 0.656 0.176 1.008c 0.176 0.368 0.576 0.64 0.976 0.64c 0.416 0 0.744 -0.24 0.944 -0.632v -1.92c -0.056 -0.176 -0.408 -0.72 -1.016 -0.72Z "/></symbol><symbol id="gE4862BFBAC37ACA35583723D3B904988" overflow="visible"><path d="M 0 0m 0.224 0v 0.248c 0.544 0 0.624 0.016 0.624 0.344v 2.608h -0.632v 0.248h 0.632v 0.904c 0 0.88 0.944 1.288 1.696 1.288c 0.611242188 0 1.032 -0.352 1.032 -0.8c 0 -0.256 -0.184 -0.376 -0.368 -0.376c -0.208 0 -0.36 0.152 -0.36 0.368c 0 0.072 0.016 0.36 0.376 0.368c -0.087148438 0.087148438 -0.296 0.264 -0.68 0.264c -0.528 0 -1.192 -0.336 -1.192 -1.128v -0.888h 1.088c 0.384 0.008 0.824 0.04 1.152 0.096v -2.928c 0 -0.344 0.056 -0.368 0.624 -0.368v -0.248c -0.2 0 -0.552 0.024 -0.88 0.024c -0.328 0 -0.688 -0.024 -0.896 -0.024v 0.248c 0.56 0 0.624 0.016 0.624 0.368v 2.168c 0 0.368 -0.112 0.416 -0.488 0.416h -1.2v -1.376v -1.216c 0 -0.344 0.064 -0.36 0.624 -0.36v -0.248c -0.208 0 -0.56 0.024 -0.888 0.024c -0.328 0 -0.696 -0.024 -0.888 -0.024Z "/></symbol><symbol id="g113270E0BFD486954B9C57EC2D3F3611" overflow="visible"><path d="M 0 0m 3.168 2.256c 0 0.328 -0.032 0.632 -0.264 0.864c -0.296 0.296 -0.616 0.464 -1.192 0.464c -0.464 0 -1.136 -0.312 -1.136 -0.896c 0 -0.248 0.144 -0.384 0.368 -0.384c 0.224 0 0.368 0.144 0.368 0.376c 0 0.192 -0.136 0.36 -0.408 0.36c 0.192 0.24 0.552 0.368 0.84 0.368c 0.432 0 0.872 -0.344 0.872 -0.992v -0.328c -1.776 -0.048 -2.272 -0.784 -2.272 -1.32c 0 -0.672 0.768 -0.856 1.264 -0.856c 0.448 0 0.888 0.232 1.064 0.696c 0.008 -0.152 0.136 -0.656 0.632 -0.656c 0.24 0 0.648 0.176 0.648 0.752v 0.456h -0.2v -0.456c 0 -0.416 -0.184 -0.504 -0.28 -0.504c -0.16 0 -0.304 0.104 -0.304 0.552Z m -0.552 -1.136c 0 -0.704 -0.52 -1.032 -0.944 -1.032c -0.44 0 -0.712 0.336867188 -0.712 0.688c 0 0.384 0.288 1.088 1.656 1.144Z "/></symbol><symbol id="g969FC14431BDC8DFB7BE75E722B1BC64" overflow="visible"><path d="M 0 0m 5.584 5.312h -4.944c -0.128 0 -0.192 -0.064 -0.192 -0.192c 0 -0.12 0.064 -0.184 0.192 -0.184h 2.28v -4.904c 0 -0.128 0.064 -0.192 0.192 -0.192c 0.128 0 0.192 0.064 0.192 0.192v 4.904h 2.28c 0.128 0 0.192 0.064 0.192 0.184c 0 0.104 -0.088 0.192 -0.192 0.192Z "/></symbol><symbol id="gB4679B678B8385AB5143F590C27FC618" overflow="visible"><path d="M 0 0m 1.536 0.424c 0 0.232 -0.192 0.424 -0.424 0.424c -0.232 0 -0.424 -0.192 -0.424 -0.424c 0 -0.232 0.192 -0.424 0.424 -0.424c 0.232 0 0.424 0.192 0.424 0.424Z "/></symbol><symbol id="gF71A6D1C25CCDB3731C07346B6FC1C4C" overflow="visible"><path d="M 0 0m 5.784 2.192h -0.376c -0.176 -1.104 -0.4 -1.816 -1.88 -1.816h -1.216v 2.256h 0.44c 0.768 0 0.848 -0.344 0.848 -0.936h 0.376v 2.248h -0.376c 0 -0.592 -0.072 -0.936 -0.848 -0.936h -0.44v 2.056h 1.216c 1.288 0 1.496 -0.584 1.624 -1.552h 0.376l -0.248 1.928h -4.968v -0.376h 0.864v -4.688h -0.864v -0.376h 5.104Z "/></symbol><symbol id="gC2EFE1E7098FC993B2D2F45EB84C1513" overflow="visible"><path d="M 0 0m 4.68 0v 0.376h -0.568l -1.344 1.592l 0.936 1.04c 0.104 0.112 0.152 0.168 0.816 0.168v 0.376l -0.736 -0.024l -0.824 0.024v -0.376c 0.112 0 0.208 -0.016 0.304 -0.072c -0.032 -0.048 -0.032 -0.064 -0.064 -0.096l -0.672 -0.752l -0.784 0.92h 0.32v 0.376l -0.968 -0.024l -0.88 0.024v -0.376h 0.568l 1.248 -1.472l -1.048 -1.176c -0.136 -0.152 -0.424 -0.152 -0.808 -0.152v -0.376l 0.736 0.024l 0.824 -0.024v 0.376c -0.144 0 -0.296 0.04 -0.296 0.088c 0 0 0 0.016 0.056 0.08l 0.776 0.872l 0.88 -1.04h -0.312v -0.376l 0.96 0.024Z "/></symbol><symbol id="gF089AD205C9CB220439F45A1F633F2E0" overflow="visible"><path d="M 0 0m 4.424 0.192c 0 0.184 -0.104 0.184 -0.208 0.184c -0.488 0.008 -0.488 0.112 -0.488 0.296v 1.72c 0 0.712 -0.568 1.232 -1.76 1.232c -0.456 0 -1.432 -0.032 -1.432 -0.736c 0 -0.352 0.28 -0.504 0.496 -0.504c 0.248 0 0.504 0.168 0.504 0.504c 0 0.24 -0.152 0.376 -0.176 0.392c 0.224 0.048 0.48 0.056 0.576 0.056c 0.6 0 0.88 -0.336 0.88 -0.944v -0.272c -0.568 -0.024 -2.6 -0.096 -2.6 -1.256c 0 -0.768 0.992 -0.912 1.544 -0.912c 0.64 0 1.016 0.328 1.192 0.664c 0 -0.248 0 -0.616 0.832 -0.616h 0.384c 0.16 0 0.256 0 0.256 0.192Z m -1.608 0.92c 0 -0.768 -0.736 -0.872 -0.936 -0.872c -0.408 0 -0.728 0.28 -0.728 0.632c 0 0.864 1.264 0.976 1.664 1Z "/></symbol><symbol id="g830DE24F1F7A9DC0DD91A6B44147275C" overflow="visible"><path d="M 0 0m 7.48 0v 0.376h -0.552v 2.072c 0 0.824 -0.408 1.152 -1.232 1.152c -0.728 0 -1.144 -0.4 -1.352 -0.768c -0.16 0.744 -0.896 0.768 -1.2 0.768c -0.696 0 -1.152 -0.36 -1.408 -0.864v 0.864l -1.376 -0.064v -0.376c 0.496 0 0.552 0 0.552 -0.312v -2.472h -0.552v -0.376l 1.008 0.024l 1.008 -0.024v 0.376h -0.552v 1.672c 0 0.872 0.696 1.264 1.192 1.264c 0.272 0 0.448 -0.16 0.448 -0.776v -2.16h -0.552v -0.376l 1.008 0.024l 1.008 -0.024v 0.376h -0.552v 1.672c 0 0.872 0.696 1.264 1.192 1.264c 0.272 0 0.448 -0.16 0.448 -0.776v -2.16h -0.552v -0.376l 1.008 0.024Z "/></symbol><symbol id="g5A00EEF3B0B59854D284FD982623D78" overflow="visible"><path d="M 0 0m 4.8 1.784c 0 1.064 -0.728 1.816 -1.88 1.816c -0.6 0 -1.024 -0.248 -1.208 -0.392v 0.392l -1.416 -0.064v -0.376c 0.496 0 0.552 0 0.552 -0.304v -4.032h -0.552v -0.376l 1.008 0.024l 1.008 -0.024v 0.376h -0.552v 1.488c 0.344 -0.28 0.696 -0.36 1.024 -0.36c 1.2 0 2.016 0.72 2.016 1.832Z m -1.024 0c 0 -1.128 -0.56 -1.544 -1.08 -1.544c -0.112 0 -0.488 0 -0.848 0.432c -0.088 0.104 -0.088 0.112 -0.088 0.264v 1.696c 0 0.152 0.008 0.16 0.12 0.272c 0.32 0.328 0.736 0.376 0.912 0.376c 0.536 0 0.984 -0.488 0.984 -1.496Z "/></symbol><symbol id="gDDC6337E0C614DE894964BA422FAE257" overflow="visible"><path d="M 0 0m 2.344 0v 0.376h -0.552v 5.176l -1.416 -0.064v -0.376c 0.496 0 0.552 0 0.552 -0.312v -4.424h -0.552v -0.376l 0.984 0.024Z "/></symbol><symbol id="gFA2164DB99CB7AC093F276A60CF01BE5" overflow="visible"><path d="M 0 0m 1.36 0c 0.312 0 0.968 0.024 1.528 0.024c 0.736 0 1.288 -0.024 1.512 -0.024v 0.248h -0.152c -0.936 0 -1.008 0.064 -1.008 0.368v 4.24c 0 0.272 0.024 0.312 0.456 0.312h 0.168c 1.208 0 1.304 -0.32 1.416 -1.552h 0.208l -0.16 1.8h -4.888l -0.16 -1.8h 0.208c 0.112 1.248 0.208 1.552 1.416 1.552h 0.168c 0.424 0 0.456 -0.04 0.456 -0.312v -4.24c 0 -0.304 -0.072 -0.368 -1.008 -0.368h -0.152Z "/></symbol><symbol id="g365277CF845F5D9358107809349AB107" overflow="visible"><path d="M 0 0m 2.176 2.048l -0.624 0.808c -0.061909546 0.080165039 -0.0733125 0.110203125 -0.0733125 0.156671875c 0 0.115078125 0.126571777 0.179769531 0.2813125 0.187328125v 0.248c -0.208 0 -0.584 -0.024 -0.88 -0.024c -0.296 0 -0.568 0.016 -0.744 0.024v -0.248c 0.368 0 0.558998779 -0.000770996 0.744 -0.24c 0.331425903 -0.428574219 0.6570625 -0.8549375 0.992 -1.28l -0.36 -0.464c -0.424 -0.52 -0.424 -0.528 -0.488 -0.584c -0.221375244 -0.193703369 -0.568 -0.368 -0.928 -0.384v -0.248c 0.14721875 0.00353125 0.463842163 0.024 0.688 0.024c 0.145678223 0 0.52352002 -0.02418811 0.709544312 -0.02418811c 0.009317505 0 0.018153931 0.000060669 0.026455688 0.00018811v 0.248c -0.141578491 0.018268188 -0.230740234 0.101028442 -0.230740234 0.230111206c 0 0.097028687 0.050378174 0.220230591 0.166740234 0.361888794l 0.552 0.672l 0.728 -0.968c 0.028358887 -0.037707764 0.045528564 -0.080325806 0.045528564 -0.112940186c 0 -0.131018555 -0.215068115 -0.183059814 -0.285528564 -0.183059814v -0.248c 0.216 0 0.664 0.024 0.848 0.024c 0.296 0 0.608 -0.024 0.784 -0.024v 0.248c -0.456 0 -0.582532227 0.017114014 -0.776 0.272c -0.344751465 0.460581909 -0.697634766 0.913032227 -1.056000244 1.36l 0.616 0.768c 0.430046875 0.5375625 0.8 0.528 1.072 0.552v 0.248c -0.144 -0.008 -0.408 -0.024 -0.672 -0.024c -0.264 0 -0.568 0.016 -0.752 0.024v -0.248c 0.114596436 -0.005208984 0.234279053 -0.09307666 0.234279053 -0.24126709c 0 -0.131945313 0 -0.131945313 -0.618279297 -0.91073291Z "/></symbol><symbol id="gC0E2B7B2B3C41929A3D53E74A1D68C3E" overflow="visible"><path d="M 0 0m 0.224 3.2c 0.56 0 0.624 -0.04 0.624 -0.416v -3.76c 0 -0.32 -0.104 -0.328 -0.624 -0.328v -0.248c 0.184 0 0.784 0.024 0.896 0.024c 0.144 0 0.76 -0.024 0.904 -0.024v 0.248c -0.536 0 -0.624 0 -0.624 0.368v 1.408c 0.12 -0.288 0.536 -0.56 0.976 -0.56c 0.916828125 0 1.792 0.719532593 1.792 1.856c 0 0.936 -0.750335938 1.768 -1.664 1.768c -0.312 0 -0.712 -0.064 -1.128 -0.528v 0.528l -1.152 -0.088Z m 1.176 -2.384v 1.872c 0.192 0.352 0.552 0.64 1.04 0.64c 0.496 0 1.056 -0.552 1.056 -1.608c 0 -1.096153809 -0.656 -1.632 -1.136 -1.632c -0.632 0 -0.928 0.576 -0.96 0.728Z "/></symbol><symbol id="g889B73C3E25ADCFF2202D9317FB2562C" overflow="visible"><path d="M 0 0m 1.416 0.616c 0 -0.352 0.056 -0.368 0.624 -0.368v -0.248c -0.2 0 -0.576 0.024 -0.896 0.024c -0.32 0 -0.68 -0.024 -0.88 -0.024v 0.248c 0.536 0 0.624 0.024 0.624 0.32v 4.256c 0 0.376 -0.176 0.392 -0.624 0.392v 0.248l 1.152 0.088Z "/></symbol><symbol id="gED200404CF64F8FA10476F200496A3B8" overflow="visible"><path d="M 0 0m 1.424 0.568v 2.632h 0.912v 0.248h -0.936v 0.936c 0 0.696 0.4 1.08 0.72 1.08c 0.176 0 0.28 -0.056 0.28 -0.056c -0.032 -0.008 -0.24 -0.088 -0.24 -0.336c 0 -0.08 0.032 -0.344 0.344 -0.344c 0.224 0 0.352 0.144 0.352 0.352c 0 0.32 -0.32 0.56 -0.72 0.56c -0.592 0 -1.24 -0.456 -1.24 -1.264v -0.928h -0.632v -0.248h 0.632v -2.616c 0 -0.312 -0.104 -0.336 -0.504 -0.336h -0.12v -0.248c 0.192 0 0.568 0.024 0.92 0.024c 0.352 0 0.768 -0.008 1.008 -0.024v 0.248h -0.112c -0.576 0 -0.664 0.056 -0.664 0.32Z "/></symbol><symbol id="gB5C20DD950597A4DCAC50B1AD402B9E9" overflow="visible"><path d="M 0 0m 6.864 0.76c 0 0.176 -0.112 0.176 -0.192 0.176c -0.168 0 -0.176 -0.08 -0.184 -0.184c -0.04 -0.376 -0.272 -0.552 -0.512 -0.552c -0.48 0 -0.552 0.568 -0.592 0.904c -0.016 0.088 -0.08 0.64 -0.088 0.68c -0.112 0.56 -0.552 0.808 -0.896 0.936c 0.928 0.24 1.336 0.76 1.336 1.288c 0 0.808 -0.88 1.48 -2.384 1.48h -3.04v -0.376h 0.864v -4.736h -0.864v -0.376c 0.288 0.024 1.072 0.024 1.408 0.024c 0.336 0 1.12 0 1.408 -0.024v 0.376h -0.864v 2.224h 0.936c 0.112 0 0.464 0 0.712 -0.272c 0.256 -0.28 0.256 -0.432 0.256 -1.016c 0 -0.528 0 -0.92 0.56 -1.192c 0.352 -0.176 0.848 -0.208 1.176 -0.208c 0.856 0 0.96 0.72 0.96 0.848Z m -2.352 3.24c 0 -0.448 0 -1.112 -1.32 -1.112h -0.928v 2.224h 0.944c 1.288 0 1.304 -0.624 1.304 -1.112Z "/></symbol><symbol id="g49D354854C35FF7884DA6D2F70F0ABC7" overflow="visible"><path d="M 0 0m 3.824 0.936c 0 0.112 -0.112 0.112 -0.192 0.112c -0.144 0 -0.152 -0.016 -0.192 -0.12c -0.208 -0.504 -0.592 -0.656 -1 -0.656c -1.112 0 -1.112 1.176 -1.112 1.544c 0 0.448 0 1.488 1.032 1.488c 0.28 0 0.416 -0.024 0.52 -0.048c -0.144 -0.128 -0.16 -0.296 -0.16 -0.368c 0 -0.352 0.28 -0.504 0.496 -0.504c 0.248 0 0.504 0.168 0.504 0.504c 0 0.688 -0.928 0.736 -1.392 0.736c -1.432 0 -2.024 -0.92 -2.024 -1.848c 0 -1.064 0.752 -1.824 1.984 -1.824c 1.296 0 1.536 0.928 1.536 0.984Z "/></symbol><symbol id="gA73F6A17D44059C26FC028BBACE944FD" overflow="visible"><path d="M 0 0m 2.472 0.248h 0.192v -0.248c -0.272 0.016 -0.776 0.024 -1.224 0.024c -0.448 0 -0.944 -0.008 -1.216 -0.024v 0.248h 0.208c 0.632 0 0.656 0.088 0.656 0.376v 2.112v 2.112c 0 0.272 -0.024 0.368 -0.672 0.368h -0.192v 0.248c 0.24 -0.016 0.768 -0.024 1.208 -0.024c 0.24 0 1.056 0.008 1.232 0.024v -0.248h -0.192c -0.616 0 -0.672 -0.072 -0.672 -0.368v -2.112v -2.112c 0 -0.288 0.024 -0.376 0.672 -0.376Z "/></symbol><symbol id="gFE308F832C8CED7BB7DF7E9C87A0AB8D" overflow="visible"><path d="M 0 0m 0.848 0.592c 0 -0.328 -0.08 -0.344 -0.624 -0.344v -0.248c 0.208 0 0.568 0.024 0.92 0.024c 0.352 0 0.848 -0.024 1.008 -0.024v 0.248c -0.776 0 -0.776 0.04 -0.776 0.448v 0.568c 0 0.672 0 0.752 0.008 0.816c 0.12 1.168 0.736 1.28 0.92 1.28c 0.04 0 0.064 0 0.104 -0.008c -0.112 -0.064 -0.184 -0.16 -0.184 -0.32c 0 -0.216 0.168 -0.336 0.344 -0.336c 0.128 0 0.344 0.08 0.344 0.352c 0 0.272 -0.264 0.488 -0.592 0.488c -0.512 0 -0.832 -0.416 -0.984 -0.88v 0.88l -1.112 -0.088v -0.248h 0.104c 0.392 -0.024 0.48 -0.048 0.512 -0.312c 0.008 -0.04 0.008 -0.424 0.008 -1.24Z "/></symbol><symbol id="g46AD42B3AA0EAEB25B78992D51403E99" overflow="visible"><path d="M 0 0m 4.28 0l -1.152 -0.088v 0.72c -0.168 -0.384 -0.488 -0.72 -1.032 -0.72c -1.064 0 -1.216 0.573976563 -1.216 1.128v 1.608c 0 0.472 -0.048 0.552 -0.52 0.552h -0.104v 0.248l 1.176 0.088v -2.688c 0 -0.4 0.072 -0.744 0.688 -0.744c 0.539546875 0 0.984 0.462367188 0.984 1.24v 1.488c 0 0.304 -0.152 0.368 -0.52 0.368h -0.104v 0.248l 1.176 0.088v -2.864c 0 -0.328 0.064 -0.424 0.544 -0.424h 0.08Z "/></symbol><symbol id="g27165273CFB716AC9FD6E3E5AE7F42D3" overflow="visible"><path d="M 0 0m 2.016 -0.088c 1.008 0 1.304 0.912 1.304 1.048c 0 0.048 -0.04 0.072 -0.112 0.072c -0.064 0 -0.08 -0.016 -0.096 -0.072c -0.152 -0.48 -0.464 -0.848 -1.048 -0.848c -0.472 0 -1.128 0.416 -1.128 1.632c 0 0.648 0.144 1.032 0.432 1.36c 0.176 0.176 0.36 0.272 0.632 0.272c 0.36 0 0.696 -0.112 0.872 -0.288c -0.312 -0.016 -0.376 -0.24 -0.376 -0.36c 0 -0.216 0.136 -0.376 0.376 -0.376c 0.208 0 0.36 0.144 0.36 0.384c 0 0.536 -0.632 0.848 -1.224 0.848c -1.032 0 -1.744 -0.912 -1.744 -1.856c 0 -0.872 0.664 -1.816 1.752 -1.816Z "/></symbol><symbol id="gDAF521B1EAD7B5C758B95F2EE5F998D2" overflow="visible"><path d="M 0 0m 3.728 -0.024l -0.848 2.352l -0.84 -2.344c -0.018132813 -0.050125 -0.072 -0.072 -0.128 -0.072c -0.032003662 0 -0.10864209 0.011480103 -0.136 0.088l -1.064 2.976c -0.075161987 0.209780273 -0.248 0.224 -0.568 0.224v 0.248c 0.096 0 0.584 -0.024 0.704 -0.024c 0.296 0 0.728 0.024 0.912 0.024v -0.248c -0.248 0 -0.464 -0.037642578 -0.464 -0.256c 0 -0.016 0.784 -2.232 0.792 -2.232l 0.688 1.928l -0.144 0.368c -0.064917969 0.165901611 -0.216 0.192 -0.544 0.192v 0.248c 0.136 -0.008 0.52 -0.024 0.72 -0.024c 0.184 0 0.6 0.024 0.824 0.024v -0.248c -0.263818604 0 -0.469477051 -0.039693359 -0.469477051 -0.211854492c 0 -0.031441895 0.006859375 -0.067302246 0.021477051 -0.108145996l 0.808 -2.28l 0.744 2.096c 0.0155625 0.043874756 0.022989258 0.087197021 0.022989258 0.12892041c 0 0.207272949 -0.183291504 0.375079834 -0.462989258 0.375079834v 0.248c 0.088 0 0.624890625 -0.024 0.768 -0.024c 0.248 0 0.44 0.016 0.56 0.024v -0.248c -0.344 0 -0.567960938 -0.226335938 -0.656 -0.472l -0.984 -2.744c -0.020528076 -0.057244995 -0.104 -0.072 -0.12 -0.072c -0.035773438 0 -0.117003418 0.011311646 -0.136 0.064Z "/></symbol><symbol id="gBEB96E0E04437E135753B9A877497299" overflow="visible"><path d="M 0 0m 5.584 -0.296h -2.28v 2.104h 2.28c 0.128 0 0.192 0.064 0.192 0.192c 0 0.128 -0.064 0.192 -0.192 0.192h -2.28v 2.28c 0 0.128 -0.064 0.192 -0.192 0.192c -0.128 0 -0.192 -0.064 -0.192 -0.192v -2.28h -2.28c -0.128 0 -0.192 -0.064 -0.192 -0.192c 0 -0.128 0.064 -0.192 0.192 -0.192h 2.28v -2.104h -2.28c -0.128 0 -0.192 -0.064 -0.192 -0.184c 0 -0.128 0.064 -0.192 0.192 -0.192h 4.944c 0.128 0 0.192 0.064 0.192 0.192c 0 0.096 -0.088 0.184 -0.192 0.184Z "/></symbol><symbol id="g4ADD3C8B8413A4DE8D00350E9A4B82E3" overflow="visible"><path d="M 0 0m 3.224 0v 0.376h -0.912v 4.736h 0.912v 0.376c -0.328 -0.024 -1.112 -0.024 -1.48 -0.024c -0.368 0 -1.152 0 -1.48 0.024v -0.376h 0.912v -4.736h -0.912v -0.376c 0.328 0.024 1.112 0.024 1.48 0.024c 0.368 0 1.152 0 1.48 -0.024Z "/></symbol><symbol id="g9133B69CFC884A26ED567EA7E95BBE58" overflow="visible"><path d="M 0 0m 1.992 -0.176c 1.128 0 1.688 0.912 1.688 2.736c 0 1.224 -0.256 2.04 -0.76 2.44c -0.28 0.216 -0.592 0.328 -0.92 0.328c -1.128 0 -1.688 -0.92 -1.688 -2.768c 0 -1.472 0.392 -2.736 1.68 -2.736Z m 0.896 4.368c 0.056 -0.28 0.08 -0.792 0.08 -1.536c 0 -0.736 -0.032 -1.28 -0.088 -1.632c -0.104 -0.64 -0.4 -0.96 -0.888 -0.96c -0.184 0 -0.368 0.072 -0.536 0.208c -0.216 0.184 -0.344 0.56 -0.4 1.136c -0.024 0.2 -0.032 0.616 -0.032 1.248c 0 0.696 0.024 1.184 0.064 1.448c 0.072 0.44 0.216 0.72 0.44 0.84c 0.176 0.096 0.328 0.144 0.464 0.144c 0.52 0 0.808 -0.424 0.896 -0.896Z "/></symbol><symbol id="g8675C7B42C39721FCAF404DA8195594B" overflow="visible"><path d="M 0 0m 4.416 5.064c 0 0.352 -0.344 0.576 -0.72 0.576c -0.496 0 -0.84 -0.32 -1.024 -0.952c -0.04 -0.144 -0.128 -0.552 -0.256 -1.224h -0.52c -0.176 0 -0.264 -0.008 -0.264 -0.176c 0 -0.088 0.08 -0.128 0.248 -0.128h 0.48l -0.584 -3.096c -0.088 -0.456 -0.168 -0.792 -0.24 -1.016c -0.096 -0.296 -0.232 -0.448 -0.408 -0.448c -0.12 0 -0.216 0.032 -0.304 0.088c 0.256 0.04 0.384 0.192 0.384 0.448c 0 0.208 -0.104 0.312 -0.32 0.312c -0.272 0 -0.464 -0.24 -0.464 -0.512c 0 -0.352 0.328 -0.576 0.704 -0.576c 0.2 0 0.384 0.08 0.536 0.248c 0.256 0.264 0.456 0.64 0.6 1.144c 0.088 0.312 0.168 0.616 0.224 0.92l 0.464 2.488h 0.656c 0.184 0 0.264 0.008 0.264 0.192c 0 0.072 -0.08 0.112 -0.24 0.112h -0.616c 0.048 0.328 0.272 1.536 0.344 1.688c 0.08 0.168 0.192 0.248 0.336 0.248c 0.12 0 0.224 -0.032 0.312 -0.088c -0.248 -0.056 -0.376 -0.2 -0.376 -0.448c 0 -0.208 0.104 -0.312 0.32 -0.312c 0.272 0 0.464 0.24 0.464 0.512Z "/></symbol><symbol id="gEC3444D603220EBCEA0E270660357126" overflow="visible"><path d="M 0 0m 2.544 -1.984c 0.072 0 0.112 0.04 0.112 0.112c 0 0.024 -0.016 0.056 -0.04 0.088c -0.416 0.32 -0.752 0.848 -1 1.576c -0.216 0.632 -0.328 1.256 -0.328 1.872v 0.672c 0 0.616 0.112 1.24 0.328 1.872c 0.248 0.728 0.584 1.256 1 1.576c 0.024 0.024 0.04 0.056 0.04 0.088c 0 0.072 -0.04 0.112 -0.112 0.112c -0.008 0 -0.032 -0.008 -0.056 -0.024c -0.48 -0.368 -0.88 -0.912 -1.208 -1.64c -0.312 -0.696 -0.472 -1.352 -0.472 -1.984v -0.672c 0 -0.632 0.16 -1.288 0.472 -1.984c 0.328 -0.728 0.728 -1.272 1.208 -1.64c 0.024 -0.016 0.048 -0.024 0.056 -0.024Z "/></symbol><symbol id="g8330DA0CB9C10CBAF3BA2E8C701C5521" overflow="visible"><path d="M 0 0m 4.216 2.984c 0 0.368 -0.36 0.552 -0.76 0.552c -0.344 0 -0.616 -0.184 -0.824 -0.552c -0.168 0.368 -0.448 0.552 -0.856 0.552c -0.392 0 -0.712 -0.184 -0.968 -0.544c -0.216 -0.312 -0.328 -0.544 -0.328 -0.696c 0 -0.072 0.04 -0.112 0.12 -0.112c 0.072 0 0.12 0.04 0.136 0.112c 0.152 0.464 0.488 1.008 1.024 1.008c 0.264 0 0.392 -0.168 0.392 -0.496c 0 -0.168 -0.144 -0.792 -0.424 -1.864c -0.136 -0.536 -0.376 -0.8 -0.72 -0.8c -0.112 0 -0.216 0.024 -0.304 0.064c 0.208 0.08 0.312 0.224 0.312 0.432c 0 0.208 -0.104 0.312 -0.32 0.312c -0.264 0 -0.464 -0.224 -0.464 -0.488c 0 -0.368 0.376 -0.552 0.768 -0.552c 0.336 0 0.608 0.184 0.824 0.552c 0.152 -0.368 0.44 -0.552 0.856 -0.552c 0.384 0 0.704 0.184 0.96 0.544c 0.216 0.312 0.328 0.544 0.328 0.696c 0 0.072 -0.04 0.112 -0.12 0.112c -0.072 0 -0.112 -0.04 -0.136 -0.112c -0.136 -0.456 -0.496 -1.008 -1.016 -1.008c -0.264 0 -0.4 0.16 -0.4 0.488c 0 0.104 0.04 0.328 0.128 0.688l 0.272 1.08c 0.152 0.6 0.4 0.904 0.752 0.904c 0.112 0 0.216 -0.024 0.304 -0.064c -0.216 -0.072 -0.32 -0.216 -0.32 -0.432c 0 -0.208 0.112 -0.312 0.328 -0.312c 0.256 0 0.456 0.232 0.456 0.488Z "/></symbol><symbol id="g1541B14FD47D9DEF936C34518D1F7277" overflow="visible"><path d="M 0 0m 0.624 -1.96c 0.48 0.368 0.88 0.912 1.208 1.64c 0.312 0.696 0.472 1.352 0.472 1.984v 0.672c 0 0.632 -0.16 1.288 -0.472 1.984c -0.328 0.728 -0.728 1.272 -1.208 1.64c -0.024 0.016 -0.048 0.024 -0.056 0.024c -0.072 0 -0.112 -0.04 -0.112 -0.112c 0 -0.032 0.016 -0.064 0.04 -0.088c 0.416 -0.32 0.752 -0.848 1 -1.576c 0.216 -0.632 0.328 -1.256 0.328 -1.872v -0.672c 0 -0.616 -0.112 -1.24 -0.328 -1.872c -0.248 -0.728 -0.584 -1.256 -1 -1.576c -0.024 -0.032 -0.04 -0.064 -0.04 -0.088c 0 -0.072 0.04 -0.112 0.112 -0.112c 0.008 0 0.032 0.008 0.056 0.024Z "/></symbol><symbol id="g912FF8E44AF3C2FF72AE1513CDE6C2F3" overflow="visible"><path d="M 0 0m 0.12 -1.128c 0 -0.344 0.36 -0.512 1.08 -0.512c 0.376 0 0.728 0.096 1.04 0.28c 0.352 0.208 0.568 0.488 0.656 0.832l 0.872 3.512c 0.016 0.08 0.024 0.128 0.024 0.152c 0 0.16 -0.088 0.24 -0.256 0.24c -0.176 0 -0.288 -0.096 -0.344 -0.28c -0.176 0.296 -0.416 0.44 -0.712 0.44c -0.512 0 -0.968 -0.256 -1.36 -0.768c -0.36 -0.48 -0.544 -0.984 -0.544 -1.504c 0 -0.696 0.408 -1.288 1.08 -1.288c 0.312 0 0.6 0.136 0.864 0.4l -0.24 -0.944c -0.232 -0.552 -0.592 -0.832 -1.096 -0.832c -0.208 0 -0.384 0.016 -0.528 0.048c 0.168 0.088 0.248 0.224 0.248 0.408c 0 0.2 -0.112 0.304 -0.328 0.304c -0.256 0 -0.456 -0.232 -0.456 -0.488Z m 2.728 4.264c 0.16 -0.168 0.24 -0.328 0.24 -0.488c 0 -0.008 -0.008 -0.048 -0.024 -0.104l -0.376 -1.512c -0.048 -0.184 -0.184 -0.376 -0.4 -0.552c -0.216 -0.176 -0.424 -0.264 -0.608 -0.264c -0.32 0 -0.48 0.232 -0.48 0.696c 0 0.44 0.272 1.416 0.432 1.704c 0.248 0.456 0.528 0.68 0.856 0.68c 0.144 0 0.264 -0.056 0.36 -0.16Z "/></symbol><symbol id="gB594B03F0C18A1F8AF835CDF971E0C9" overflow="visible"><path d="M 0 0m 2.152 5.328c -0.328 -0.336 -0.808 -0.504 -1.44 -0.504v -0.312c 0.416 0 0.76 0.064 1.024 0.192v -4.048c 0 -0.144 -0.032 -0.24 -0.104 -0.28c -0.072 -0.04 -0.272 -0.064 -0.592 -0.064h -0.28v -0.312c 0.2 0.016 0.632 0.024 1.296 0.024c 0.664 0 1.096 -0.008 1.296 -0.024v 0.312h -0.28c -0.328 0 -0.528 0.024 -0.592 0.064c -0.064 0.04 -0.104 0.136 -0.104 0.28v 4.432c 0 0.192 -0.016 0.24 -0.224 0.24Z "/></symbol><symbol id="gDF0C1B4562B3DC8D7650A849E72561DD" overflow="visible"><path d="M 0 0m 1.5904 3.0744c -0.14 0 -0.2352 -0.056 -0.2856 -0.1736l -0.9408 -2.3632h 0.252l 1.2432 2.0552c 0.028 0.0504 0.0448 0.1064 0.0448 0.168c 0 0.168 -0.1456 0.3136 -0.3136 0.3136Z "/></symbol><symbol id="gD951841567BAE067D0015F919473B51D" overflow="visible"><path d="M 0 0m 3.976 6.44c -0.608 0 -1.016 -0.464 -1.224 -1.4c -0.032 -0.136 -0.072 -0.416 -0.128 -0.832l -0.104 -0.808c -0.112 -0.896 -0.184 -1.56 -0.216 -2l -0.152 -1.976c -0.056 -0.776 -0.184 -1.632 -0.808 -1.632c -0.168 0 -0.312 0.04 -0.432 0.12c 0.168 0.048 0.256 0.16 0.256 0.336c 0 0.216 -0.144 0.368 -0.36 0.368c -0.24 0 -0.36 -0.128 -0.36 -0.376c 0 -0.424 0.44 -0.688 0.896 -0.688c 0.648 0 1.096 0.48 1.336 1.432c 0.168 0.672 0.32 1.872 0.448 3.608l 0.152 1.976c 0.032 0.456 0.088 0.816 0.16 1.072c 0.104 0.336 0.176 0.56 0.544 0.56c 0.168 0 0.312 -0.04 0.424 -0.12c -0.168 -0.048 -0.256 -0.16 -0.256 -0.336c 0 -0.216 0.144 -0.368 0.36 -0.368c 0.24 0 0.36 0.128 0.36 0.376c 0 0.424 -0.44 0.688 -0.896 0.688Z "/></symbol><symbol id="gB3EE0C1E16FACFE2BD9A098368C8D596" overflow="visible"><path d="M 0 0m 1.112 0.848c -0.256 0 -0.424 -0.192 -0.424 -0.448c 0 -0.24 0.184 -0.44 0.424 -0.44c 0.112 0 0.208 0.032 0.28 0.104l 0.008 -0.064c 0 -0.504 -0.168 -0.936 -0.504 -1.28c -0.056 -0.064 -0.088 -0.112 -0.088 -0.144c 0 -0.08 0.032 -0.12 0.104 -0.12c 0.072 0 0.168 0.096 0.304 0.28c 0.272 0.384 0.408 0.808 0.408 1.264c 0 0.424 -0.144 0.848 -0.512 0.848Z "/></symbol><symbol id="g2CD2F34DFF68346566CC4F115AAD9921" overflow="visible"><path d="M 0 0m 2.992 -0.088l 1.224 0.088v 0.304c -0.288 0 -0.456 0.016 -0.52 0.064c -0.064 0.048 -0.096 0.168 -0.096 0.352v 4.832l -1.192 -0.088v -0.304c 0.28 0 0.456 -0.024 0.52 -0.072c 0.064 -0.048 0.088 -0.16 0.088 -0.344v -1.624c -0.256 0.296 -0.576 0.44 -0.96 0.44c -0.496 0 -0.92 -0.176 -1.264 -0.536c -0.344 -0.36 -0.52 -0.792 -0.52 -1.296c 0 -0.488 0.16 -0.912 0.488 -1.272c 0.328 -0.36 0.728 -0.544 1.216 -0.544c 0.408 0 0.752 0.152 1.016 0.464Z m -0.904 3.408c 0.344 0 0.624 -0.152 0.824 -0.456c 0.056 -0.088 0.08 -0.176 0.08 -0.28v -1.616c 0 -0.104 -0.024 -0.192 -0.08 -0.28c -0.224 -0.36 -0.528 -0.536 -0.904 -0.536c -0.328 0 -0.592 0.16 -0.8 0.488c -0.144 0.24 -0.216 0.6 -0.216 1.08c 0 0.872 0.296 1.6 1.096 1.6Z "/></symbol><symbol id="g3CFE5A54C9C73579361B916A247ADAE2" overflow="visible"><path d="M 0 0m 1.896 5.328c -0.408 0 -0.752 -0.144 -1.048 -0.432c -0.296 -0.288 -0.448 -0.624 -0.448 -1.032c 0 -0.272 0.2 -0.472 0.448 -0.472c 0.24 0 0.44 0.208 0.44 0.448c 0 0.264 -0.192 0.448 -0.448 0.448c -0.024 0 -0.04 0 -0.056 -0.008c 0.152 0.392 0.504 0.736 1.008 0.736c 0.656 0 1.024 -0.568 1.024 -1.256c 0 -0.536 -0.272 -1.112 -0.816 -1.72l -1.504 -1.696c -0.104 -0.12 -0.096 -0.112 -0.096 -0.344h 2.968l 0.232 1.44h -0.264c -0.064 -0.408 -0.12 -0.64 -0.168 -0.712c -0.04 -0.04 -0.28 -0.056 -0.72 -0.056h -1.336l 0.776 0.76c 0.544 0.512 1.232 1.064 1.464 1.488c 0.16 0.28 0.24 0.56 0.24 0.84c 0 0.944 -0.736 1.568 -1.696 1.568Z "/></symbol><symbol id="gE7F6DC195424E4C3589C956C3AB6C9B3" overflow="visible"><path d="M 0 0m 2.9288 3.0744c -0.1456 0 -0.2408 -0.056 -0.2856 -0.1736l -0.9576 -2.3632h 0.2576l 1.26 2.0552c 0.028 0.0504 0.0448 0.1064 0.0448 0.168c 0 0.168 -0.1512 0.3136 -0.3192 0.3136Z m -1.3216 0c -0.1456 0 -0.2408 -0.056 -0.2856 -0.1736l -0.9576 -2.3632h 0.2576l 1.2544 2.0552c 0.0336 0.0504 0.0504 0.1064 0.0504 0.168c 0 0.168 -0.1512 0.3136 -0.3192 0.3136Z "/></symbol><symbol id="gDEF0C4096F678E732C9E10B279C08279" overflow="visible"><path d="M 0 0m 6.928 6.44c -0.616 0 -1.024 -0.464 -1.232 -1.4c -0.032 -0.144 -0.08 -0.44 -0.136 -0.88l -0.096 -0.76c -0.112 -0.896 -0.184 -1.56 -0.216 -2l -0.152 -1.976c -0.056 -0.776 -0.184 -1.632 -0.808 -1.632c -0.176 0 -0.32 0.04 -0.44 0.12c 0.168 0.048 0.256 0.16 0.256 0.336c 0 0.216 -0.144 0.368 -0.36 0.368c -0.24 0 -0.36 -0.128 -0.36 -0.376c 0 -0.432 0.448 -0.688 0.904 -0.688c 0.648 0 1.096 0.48 1.336 1.432c 0.168 0.672 0.32 1.872 0.456 3.608l 0.152 1.976c 0.032 0.456 0.088 0.816 0.16 1.072c 0.104 0.344 0.176 0.56 0.544 0.56c 0.168 0 0.312 -0.04 0.424 -0.12c -0.168 -0.048 -0.248 -0.16 -0.248 -0.336c 0 -0.208 0.144 -0.368 0.352 -0.368c 0.248 0 0.368 0.128 0.368 0.376c 0 0.432 -0.448 0.688 -0.904 0.688Z m -2.936 0c -0.616 0 -1.024 -0.464 -1.224 -1.4c -0.032 -0.144 -0.08 -0.44 -0.136 -0.88l -0.104 -0.76c -0.112 -0.896 -0.184 -1.56 -0.216 -2l -0.152 -1.976c -0.056 -0.776 -0.184 -1.632 -0.808 -1.632c -0.168 0 -0.312 0.04 -0.432 0.12c 0.168 0.048 0.248 0.16 0.248 0.336c 0 0.208 -0.144 0.368 -0.352 0.368c -0.248 0 -0.368 -0.128 -0.368 -0.376c 0 -0.432 0.448 -0.688 0.904 -0.688c 0.648 0 1.096 0.48 1.336 1.432c 0.168 0.672 0.32 1.872 0.456 3.608l 0.152 1.976c 0.032 0.456 0.088 0.816 0.168 1.072c 0.088 0.336 0.176 0.56 0.536 0.56c 0.168 0 0.312 -0.04 0.432 -0.12c -0.168 -0.048 -0.256 -0.16 -0.256 -0.336c 0 -0.216 0.144 -0.368 0.36 -0.368c 0.24 0 0.36 0.128 0.36 0.376c 0 0.432 -0.448 0.688 -0.904 0.688Z "/></symbol><symbol id="g992ECDDC1C7D73E0587DA6A48C7B852F" overflow="visible"><path d="M 0 0m 2.272 4.968c 0 0.216 -0.104 0.32 -0.32 0.32c -0.224 0 -0.448 -0.224 -0.448 -0.448c 0 -0.216 0.112 -0.32 0.328 -0.32c 0.224 0 0.44 0.224 0.44 0.448Z m -0.2 -3.864c -0.176 -0.632 -0.432 -0.952 -0.76 -0.952c -0.104 0 -0.16 0.072 -0.16 0.224c 0 0.136 0.232 0.824 0.704 2.072c 0.064 0.184 0.096 0.328 0.096 0.432c 0 0.392 -0.272 0.68 -0.664 0.68c -0.344 0 -0.616 -0.2 -0.816 -0.608c -0.16 -0.328 -0.24 -0.544 -0.24 -0.648c 0 -0.072 0.04 -0.104 0.128 -0.104c 0.104 0 0.12 0.048 0.152 0.16c 0.184 0.64 0.432 0.96 0.752 0.96c 0.104 0 0.16 -0.072 0.16 -0.224c 0 -0.112 -0.024 -0.24 -0.08 -0.392c -0.184 -0.504 -0.376 -1.04 -0.536 -1.464c -0.12 -0.32 -0.184 -0.536 -0.184 -0.648c 0 -0.392 0.288 -0.68 0.672 -0.68c 0.344 0 0.616 0.2 0.816 0.6c 0.152 0.312 0.232 0.528 0.232 0.648c 0 0.072 -0.04 0.112 -0.128 0.112c -0.024 0 -0.144 -0.072 -0.144 -0.168Z "/></symbol><symbol id="g3B3F02F2E5872F05AAD362EE20B1F8D5" overflow="visible"><path d="M 0 0m 6.008 0.424c 0 0.24 -0.208 0.424 -0.448 0.424c -0.248 0 -0.456 -0.184 -0.456 -0.424c 0 -0.24 0.208 -0.424 0.456 -0.424c 0.24 0 0.448 0.184 0.448 0.424Z m -2.208 0c 0 0.24 -0.208 0.424 -0.448 0.424c -0.248 0 -0.448 -0.184 -0.448 -0.424c 0 -0.24 0.2 -0.424 0.448 -0.424c 0.24 0 0.448 0.184 0.448 0.424Z m -2.2 0c 0 0.24 -0.208 0.424 -0.456 0.424c -0.24 0 -0.448 -0.184 -0.448 -0.424c 0 -0.24 0.208 -0.424 0.448 -0.424c 0.24 0 0.456 0.184 0.456 0.424Z "/></symbol><symbol id="g629B7864608344627E69514CDD20525D" overflow="visible"><path d="M 0 0m 6.912 5.464c -0.152 0 -0.648 -0.024 -0.8 -0.024c -0.152 0 -0.656 0.024 -0.808 0.024c -0.12 0 -0.176 -0.064 -0.176 -0.192c 0 -0.072 0.056 -0.112 0.176 -0.12c 0.336 0 0.504 -0.104 0.504 -0.312c 0 -0.048 -0.008 -0.104 -0.016 -0.16l -0.864 -3.424l -1.72 4.04c -0.064 0.152 -0.08 0.168 -0.28 0.168h -1.064c -0.192 0 -0.264 -0.016 -0.264 -0.192c 0 -0.08 0.088 -0.12 0.256 -0.12c 0.336 0 0.504 -0.008 0.512 -0.032l -1.064 -4.24c -0.072 -0.312 -0.256 -0.488 -0.544 -0.544c -0.208 -0.024 -0.448 0.008 -0.448 -0.216c 0 -0.08 0.048 -0.12 0.136 -0.12c 0.144 0 0.64 0.024 0.792 0.024c 0.152 0 0.664 -0.024 0.816 -0.024c 0.12 0 0.176 0.064 0.176 0.192c 0 0.072 -0.064 0.112 -0.192 0.12c -0.328 0.008 -0.488 0.112 -0.488 0.312c 0 0.04 0.008 0.096 0.024 0.176l 1.032 4.088l 2 -4.72c 0.048 -0.112 0.112 -0.168 0.184 -0.168c 0.072 0 0.12 0.064 0.152 0.192l 1.112 4.4c 0.104 0.408 0.328 0.552 0.824 0.56c 0.112 0.008 0.168 0.072 0.168 0.2c -0.024 0.072 -0.032 0.112 -0.136 0.112Z "/></symbol><symbol id="g393F10E89EF78CC6F31343E6283C37B8" overflow="visible"><path d="M 0 0m 4.536 5.464h -2.656c -0.184 0 -0.272 -0.008 -0.272 -0.184c 0 -0.088 0.088 -0.128 0.264 -0.128c 0.16 0 0.48 0.024 0.48 -0.104c 0 -0.016 -0.008 -0.064 -0.032 -0.144l -1.056 -4.248c -0.04 -0.176 -0.12 -0.28 -0.24 -0.32c -0.056 -0.016 -0.2 -0.024 -0.448 -0.024c -0.176 0 -0.256 -0.016 -0.256 -0.184c 0 -0.088 0.088 -0.128 0.256 -0.128h 2.616c 0.544 0 1.064 0.16 1.568 0.488c 0.856 0.552 1.672 1.632 1.672 2.944c 0 1.184 -0.728 2.032 -1.896 2.032Z m 1.144 -1.736c 0 -0.904 -0.408 -2 -0.824 -2.536c -0.456 -0.584 -1.056 -0.88 -1.808 -0.88h -0.888c -0.088 0 -0.144 0 -0.176 0.008c -0.048 0 -0.072 0.016 -0.072 0.04c 0 0.016 0.016 0.072 0.04 0.176l 1.08 4.344c 0.072 0.264 0.064 0.272 0.4 0.272h 0.848c 0.896 0 1.4 -0.528 1.4 -1.424Z "/></symbol><symbol id="g880EF64D8EB75B4327D5E5F3865935A2" overflow="visible"><path d="M 0 0m 4.6928 3.8024c -0.112 0 -0.476 0.0224 -0.588 0.0224c -0.0896 0 -0.1344 -0.0504 -0.1344 -0.1456c 0 -0.0616 0.0504 -0.0952 0.1456 -0.0952c 0.2184 -0.0056 0.3304 -0.0728 0.3304 -0.2072c 0 -0.028 -0.0056 -0.0672 -0.0168 -0.1288l -0.5936 -2.352l -1.3832 2.8224c -0.0448 0.0952 -0.0728 0.1064 -0.2072 0.1064h -0.7616c -0.1288 0 -0.196 -0.0168 -0.196 -0.1456c 0 -0.0616 0.0672 -0.0952 0.2016 -0.0952c 0.1344 0 0.2408 -0.0112 0.3304 -0.028l -0.7392 -2.9344c -0.0728 -0.28 -0.2184 -0.364 -0.5544 -0.3808c -0.0952 0 -0.14 -0.0448 -0.14 -0.1344c 0 -0.0728 0.0336 -0.1064 0.1064 -0.1064c 0.1064 0 0.4704 0.0224 0.5768 0.0224c 0.112 0 0.476 -0.0224 0.588 -0.0224c 0.0896 0 0.1344 0.0448 0.1344 0.14c 0 0.0672 -0.0504 0.1008 -0.1512 0.1008c -0.2184 0.0056 -0.3248 0.0392 -0.3248 0.2128c 0 0.028 0.0056 0.0728 0.0168 0.1344l 0.7 2.772l 1.5904 -3.2536c 0.0392 -0.0728 0.084 -0.1064 0.1456 -0.1064c 0.0728 0 0.1344 0.0448 0.1344 0.1344l 0.7728 3.0576c 0.0728 0.2856 0.2128 0.3864 0.5656 0.392c 0.0896 0 0.1344 0.0448 0.1344 0.14c 0 0.0672 -0.0336 0.1008 -0.1064 0.1008c -0.1064 0 -0.4704 -0.0224 -0.5768 -0.0224Z "/></symbol><symbol id="g32A364B32AF0FAB04981338FA7E64C80" overflow="visible"><path d="M 0 0m 3.976 5.336c 0 0.088 -0.048 0.128 -0.152 0.128l -1.032 -0.024l -1.048 0.024c -0.128 0.008 -0.192 -0.056 -0.192 -0.192c 0 -0.08 0.088 -0.12 0.256 -0.12c 0.344 0 0.512 -0.04 0.512 -0.112c 0 -0.04 -0.008 -0.08 -0.016 -0.12l -1.064 -4.264c -0.04 -0.176 -0.12 -0.28 -0.24 -0.32c -0.056 -0.016 -0.2 -0.024 -0.448 -0.024c -0.2 0 -0.28 -0.008 -0.28 -0.192c 0 -0.08 0.048 -0.12 0.152 -0.12l 1.024 0.024l 1.056 -0.024c 0.128 -0.008 0.192 0.056 0.192 0.184c 0 0.128 -0.096 0.128 -0.272 0.128c -0.312 0 -0.504 -0.016 -0.504 0.112c 0 0.04 0.008 0.096 0.032 0.176l 1.056 4.216c 0.04 0.168 0.12 0.272 0.24 0.312c 0.056 0.016 0.2 0.024 0.448 0.024c 0.192 0 0.28 0.008 0.28 0.184Z "/></symbol><symbol id="g8369A34B859F17BC3B5E306D8A5D7A0B" overflow="visible"><path d="M 0 0m 3.352 0v 0.248c -0.956125 0.004070313 -1 0.039257813 -1 0.392v 4.552c 0 0.096 -0.024 0.136 -0.112 0.136h -0.072c -0.24 -0.216 -0.584 -0.512 -1.456 -0.512v -0.248c 0.648 0 0.96680835 0.155106445 1.048 0.216v -4.144c 0 -0.336765625 -0.019945313 -0.387929688 -1 -0.392v -0.248c 0.176 0 0.968 0.024 1.176 0.024c 0.496 0 1.128 -0.024 1.416 -0.024Z "/></symbol></defs></svg>